<mxfile host="65bd71144e">
    <diagram id="4ZWK0EVu7hy37HVAt-Wv" name="Page-1">
        <mxGraphModel dx="2860" dy="1911" grid="0" gridSize="10" guides="1" tooltips="1" connect="1" arrows="1" fold="1" page="1" pageScale="1" pageWidth="850" pageHeight="1100" math="0" shadow="0">
            <root>
                <mxCell id="0"/>
                <mxCell id="1" parent="0"/>
                <mxCell id="2" value="" style="rounded=0;whiteSpace=wrap;html=1;" parent="1" vertex="1">
                    <mxGeometry width="3391" height="2194" as="geometry"/>
                </mxCell>
                <mxCell id="111" value="" style="rounded=0;whiteSpace=wrap;html=1;" parent="1" vertex="1">
                    <mxGeometry x="42" y="998" width="2728" height="1146" as="geometry"/>
                </mxCell>
                <mxCell id="167" value="" style="rounded=0;whiteSpace=wrap;html=1;" parent="1" vertex="1">
                    <mxGeometry x="55" y="1289" width="2677" height="814" as="geometry"/>
                </mxCell>
                <mxCell id="309" value="&lt;span style=&quot;font-size: 10px&quot;&gt;&lt;span&gt; &lt;/span&gt;&lt;span&gt; &lt;/span&gt;&lt;span&gt; &lt;/span&gt;&lt;span style=&quot;white-space: pre&quot;&gt; &lt;/span&gt;total_balance = &amp;lt;current_balance&amp;gt;&lt;br&gt;&lt;span&gt; &lt;/span&gt;&lt;span&gt; &lt;/span&gt;&lt;span&gt; &lt;/span&gt;&lt;span style=&quot;white-space: pre&quot;&gt; &lt;/span&gt;total_interest = &amp;lt;diff&amp;gt;&lt;br&gt;&lt;span&gt; &lt;/span&gt;&lt;br&gt;&lt;span&gt; &lt;/span&gt;&lt;span style=&quot;white-space: pre&quot;&gt; &lt;/span&gt;user_pending_iba_fees[]&lt;br&gt;&lt;br&gt;&lt;span&gt; &lt;/span&gt;&lt;span&gt; &lt;/span&gt;&lt;span style=&quot;white-space: pre&quot;&gt; &lt;/span&gt;user_each&lt;br&gt;&lt;br&gt;&lt;span&gt; &lt;/span&gt;&lt;span&gt; &lt;span&gt; &lt;/span&gt;&lt;/span&gt;&lt;span&gt; &lt;/span&gt;&lt;span&gt; &lt;/span&gt;&lt;span style=&quot;white-space: pre&quot;&gt; &lt;span style=&quot;white-space: pre&quot;&gt; &lt;/span&gt;&lt;/span&gt;user_balance =&amp;nbsp;&lt;/span&gt;&lt;span style=&quot;font-size: 10px&quot;&gt;&amp;lt;all_holded_user_deposit_amount&amp;gt;&lt;/span&gt;&lt;span style=&quot;font-size: 10px&quot;&gt;&lt;br&gt;&lt;span&gt; &lt;/span&gt;&lt;span&gt; &lt;span&gt; &lt;/span&gt;&lt;/span&gt;&lt;span&gt; &lt;/span&gt;&lt;span&gt; &lt;/span&gt;&lt;span style=&quot;white-space: pre&quot;&gt; &lt;/span&gt;&lt;span style=&quot;white-space: pre&quot;&gt; &lt;/span&gt;user_interest = (user_balance / total_balance) * diff&lt;br&gt;&lt;span&gt; &lt;/span&gt;&lt;span&gt; &lt;span&gt; &lt;/span&gt;&lt;/span&gt;&lt;span&gt; &lt;span&gt; &lt;/span&gt;&lt;/span&gt;&lt;span style=&quot;white-space: pre&quot;&gt; &lt;/span&gt;&lt;span style=&quot;white-space: pre&quot;&gt; &lt;/span&gt;&lt;b&gt;user_pending_iba_fee&lt;/b&gt;[X] = user_interest&lt;br&gt;&lt;span&gt; &lt;/span&gt;&lt;br&gt;&lt;span&gt; &lt;/span&gt;&lt;span style=&quot;white-space: pre&quot;&gt; &lt;/span&gt;&lt;b&gt;bitso_pending_iba_fee&lt;/b&gt; = total_interest - sum(&amp;nbsp;&lt;/span&gt;&lt;span style=&quot;font-size: 10px&quot;&gt;user_pending_iba_fees )&lt;/span&gt;&lt;span style=&quot;font-size: 10px&quot;&gt;&lt;br&gt;&lt;/span&gt;" style="rounded=0;whiteSpace=wrap;html=1;dashed=1;fontColor=#FFFFFF;align=left;" parent="1" vertex="1">
                    <mxGeometry x="1497.5" y="1825" width="360" height="178" as="geometry"/>
                </mxCell>
                <mxCell id="3" value="" style="rounded=0;whiteSpace=wrap;html=1;" parent="1" vertex="1">
                    <mxGeometry x="40" y="53" width="2067" height="882" as="geometry"/>
                </mxCell>
                <mxCell id="302" value="" style="rounded=0;whiteSpace=wrap;html=1;fontSize=10;fontColor=#FFFFFF;" parent="1" vertex="1">
                    <mxGeometry x="51" y="107" width="1010" height="784" as="geometry"/>
                </mxCell>
                <mxCell id="166" value="" style="rounded=0;whiteSpace=wrap;html=1;" parent="1" vertex="1">
                    <mxGeometry x="55" y="1045" width="2671" height="176" as="geometry"/>
                </mxCell>
                <mxCell id="23" value="Day #0 Flow - Ops Manual Deposit" style="text;html=1;strokeColor=#2D7600;fillColor=#60a917;align=center;verticalAlign=middle;whiteSpace=wrap;rounded=0;fontColor=#ffffff;" parent="1" vertex="1">
                    <mxGeometry x="40" y="50" width="267" height="30" as="geometry"/>
                </mxCell>
                <mxCell id="112" value="Day #1 Flow - Bitso Yield Conciliation (Flexible)" style="text;html=1;strokeColor=#2D7600;fillColor=#60a917;align=center;verticalAlign=middle;whiteSpace=wrap;rounded=0;fontColor=#ffffff;" parent="1" vertex="1">
                    <mxGeometry x="40" y="998" width="349" height="30" as="geometry"/>
                </mxCell>
                <mxCell id="113" value="&lt;span style=&quot;color: rgb(240 , 240 , 240) ; font-family: &amp;#34;helvetica&amp;#34; ; font-size: 12px ; font-style: normal ; font-weight: 400 ; letter-spacing: normal ; text-align: center ; text-indent: 0px ; text-transform: none ; word-spacing: 0px ; background-color: rgb(42 , 42 , 42) ; display: inline ; float: none&quot;&gt;Whalefin Environment&lt;/span&gt;" style="text;whiteSpace=wrap;html=1;" parent="1" vertex="1">
                    <mxGeometry x="64.99666666666653" y="1049.001111111111" width="137" height="28" as="geometry"/>
                </mxCell>
                <mxCell id="158" value="" style="group" parent="1" vertex="1" connectable="0">
                    <mxGeometry x="120" y="1084" width="177.5" height="90" as="geometry"/>
                </mxCell>
                <mxCell id="159" value="" style="group" parent="158" vertex="1" connectable="0">
                    <mxGeometry x="-6" width="183.5" height="90" as="geometry"/>
                </mxCell>
                <mxCell id="160" value="whalefin-asset" style="rounded=0;whiteSpace=wrap;html=1;" parent="159" vertex="1">
                    <mxGeometry x="23.5" y="30" width="160" height="60" as="geometry"/>
                </mxCell>
                <mxCell id="161" value="" style="sketch=0;html=1;dashed=0;whitespace=wrap;fillColor=#2875E2;strokeColor=#ffffff;points=[[0.005,0.63,0],[0.1,0.2,0],[0.9,0.2,0],[0.5,0,0],[0.995,0.63,0],[0.72,0.99,0],[0.5,1,0],[0.28,0.99,0]];shape=mxgraph.kubernetes.icon;prIcon=api;shadow=0;fontSize=12;" parent="159" vertex="1">
                    <mxGeometry width="50" height="48" as="geometry"/>
                </mxCell>
                <mxCell id="168" value="&lt;span style=&quot;color: rgb(240 , 240 , 240) ; font-family: &amp;#34;helvetica&amp;#34; ; font-size: 12px ; font-style: normal ; font-weight: 400 ; letter-spacing: normal ; text-align: center ; text-indent: 0px ; text-transform: none ; word-spacing: 0px ; background-color: rgb(42 , 42 , 42) ; display: inline ; float: none&quot;&gt;Bitso Environment&lt;/span&gt;" style="text;whiteSpace=wrap;html=1;" parent="1" vertex="1">
                    <mxGeometry x="62.99666666666653" y="1301.001111111111" width="137" height="28" as="geometry"/>
                </mxCell>
                <mxCell id="173" style="edgeStyle=none;html=1;entryX=0;entryY=0.5;entryDx=0;entryDy=0;fontColor=#FFFFFF;endArrow=classic;endFill=1;strokeColor=#FFFFFF;" parent="1" source="169" target="171" edge="1">
                    <mxGeometry relative="1" as="geometry">
                        <Array as="points">
                            <mxPoint x="91" y="1483"/>
                        </Array>
                    </mxGeometry>
                </mxCell>
                <mxCell id="169" value="" style="sketch=0;html=1;aspect=fixed;strokeColor=none;shadow=0;align=center;verticalAlign=top;fillColor=#3B8DF1;shape=mxgraph.gcp2.clock" parent="1" vertex="1">
                    <mxGeometry x="68" y="1342" width="45" height="45" as="geometry"/>
                </mxCell>
                <mxCell id="170" value="" style="group" parent="1" vertex="1" connectable="0">
                    <mxGeometry x="120" y="1422" width="177.5" height="90" as="geometry"/>
                </mxCell>
                <mxCell id="171" value="bitso-whalefin-balance" style="rounded=0;whiteSpace=wrap;html=1;" parent="170" vertex="1">
                    <mxGeometry x="17.5" y="30" width="160" height="60" as="geometry"/>
                </mxCell>
                <mxCell id="172" value="" style="verticalLabelPosition=bottom;html=1;verticalAlign=top;align=center;strokeColor=none;fillColor=#00BEF2;shape=mxgraph.azure.startup_task;pointerEvents=1;labelBackgroundColor=#2A2A2A;fontColor=#FFFFFF;gradientColor=none;shadow=0;" parent="170" vertex="1">
                    <mxGeometry width="47.5" height="50" as="geometry"/>
                </mxCell>
                <mxCell id="175" style="edgeStyle=none;html=1;entryX=0.5;entryY=1;entryDx=0;entryDy=0;fontColor=#FFFFFF;endArrow=classic;endFill=1;strokeColor=#FFFFFF;" parent="1" source="171" target="160" edge="1">
                    <mxGeometry relative="1" as="geometry"/>
                </mxCell>
                <mxCell id="176" value="get-balances" style="edgeLabel;html=1;align=center;verticalAlign=middle;resizable=0;points=[];fontColor=#FFFFFF;" parent="175" vertex="1" connectable="0">
                    <mxGeometry x="0.307" y="-4" relative="1" as="geometry">
                        <mxPoint x="-4" y="-8" as="offset"/>
                    </mxGeometry>
                </mxCell>
                <mxCell id="212" value="" style="edgeStyle=none;html=1;fontColor=#FFFFFF;endArrow=none;endFill=0;strokeColor=#FFFFFF;dashed=1;" parent="1" source="177" target="211" edge="1">
                    <mxGeometry relative="1" as="geometry"/>
                </mxCell>
                <mxCell id="177" value="&lt;font color=&quot;#ffffff&quot;&gt;whalefin-aum-balances&lt;/font&gt;" style="sketch=0;points=[[0,0,0],[0.25,0,0],[0.5,0,0],[0.75,0,0],[1,0,0],[0,1,0],[0.25,1,0],[0.5,1,0],[0.75,1,0],[1,1,0],[0,0.25,0],[0,0.5,0],[0,0.75,0],[1,0.25,0],[1,0.5,0],[1,0.75,0]];outlineConnect=0;fontColor=#232F3E;gradientColor=#4D72F3;gradientDirection=north;fillColor=#3334B9;strokeColor=#ffffff;dashed=0;verticalLabelPosition=bottom;verticalAlign=top;align=center;html=1;fontSize=12;fontStyle=0;aspect=fixed;shape=mxgraph.aws4.resourceIcon;resIcon=mxgraph.aws4.aurora;" parent="1" vertex="1">
                    <mxGeometry x="395" y="1300" width="66" height="66" as="geometry"/>
                </mxCell>
                <mxCell id="183" style="edgeStyle=none;html=1;entryX=0;entryY=0.5;entryDx=0;entryDy=0;entryPerimeter=0;fontColor=#FFFFFF;endArrow=classic;endFill=1;strokeColor=#FFFFFF;exitX=0.75;exitY=0;exitDx=0;exitDy=0;" parent="1" source="171" target="177" edge="1">
                    <mxGeometry relative="1" as="geometry">
                        <Array as="points">
                            <mxPoint x="258" y="1408"/>
                            <mxPoint x="309" y="1408"/>
                            <mxPoint x="309" y="1333"/>
                            <mxPoint x="359" y="1333"/>
                        </Array>
                    </mxGeometry>
                </mxCell>
                <mxCell id="245" value="save-update" style="edgeLabel;html=1;align=center;verticalAlign=middle;resizable=0;points=[];fontColor=#FFFFFF;" parent="183" vertex="1" connectable="0">
                    <mxGeometry x="0.2236" y="-3" relative="1" as="geometry">
                        <mxPoint as="offset"/>
                    </mxGeometry>
                </mxCell>
                <mxCell id="184" value="" style="endArrow=none;dashed=1;html=1;strokeColor=#FFFFFF;" parent="1" edge="1">
                    <mxGeometry width="50" height="50" relative="1" as="geometry">
                        <mxPoint x="515" y="2120" as="sourcePoint"/>
                        <mxPoint x="517" y="1017" as="targetPoint"/>
                    </mxGeometry>
                </mxCell>
                <mxCell id="185" style="edgeStyle=none;html=1;entryX=0;entryY=0.5;entryDx=0;entryDy=0;fontColor=#FFFFFF;endArrow=classic;endFill=1;strokeColor=#FFFFFF;" parent="1" source="186" target="188" edge="1">
                    <mxGeometry relative="1" as="geometry">
                        <Array as="points">
                            <mxPoint x="550" y="1436"/>
                            <mxPoint x="550" y="1481"/>
                        </Array>
                    </mxGeometry>
                </mxCell>
                <mxCell id="186" value="" style="sketch=0;html=1;aspect=fixed;strokeColor=none;shadow=0;align=center;verticalAlign=top;fillColor=#3B8DF1;shape=mxgraph.gcp2.clock" parent="1" vertex="1">
                    <mxGeometry x="527" y="1342" width="45" height="45" as="geometry"/>
                </mxCell>
                <mxCell id="187" value="" style="group" parent="1" vertex="1" connectable="0">
                    <mxGeometry x="567" y="1422" width="177.5" height="90" as="geometry"/>
                </mxCell>
                <mxCell id="188" value="bitso-whalefin-deposit" style="rounded=0;whiteSpace=wrap;html=1;" parent="187" vertex="1">
                    <mxGeometry x="17.5" y="30" width="160" height="60" as="geometry"/>
                </mxCell>
                <mxCell id="189" value="" style="verticalLabelPosition=bottom;html=1;verticalAlign=top;align=center;strokeColor=none;fillColor=#00BEF2;shape=mxgraph.azure.startup_task;pointerEvents=1;labelBackgroundColor=#2A2A2A;fontColor=#FFFFFF;gradientColor=none;shadow=0;" parent="187" vertex="1">
                    <mxGeometry width="47.5" height="50" as="geometry"/>
                </mxCell>
                <mxCell id="214" style="edgeStyle=none;html=1;entryX=0.5;entryY=0;entryDx=0;entryDy=0;entryPerimeter=0;dashed=1;fontColor=#FFFFFF;endArrow=none;endFill=0;strokeColor=#FFFFFF;" parent="1" source="190" target="213" edge="1">
                    <mxGeometry relative="1" as="geometry"/>
                </mxCell>
                <mxCell id="190" value="&lt;font color=&quot;#ffffff&quot;&gt;whalefin-deposits&lt;/font&gt;" style="sketch=0;points=[[0,0,0],[0.25,0,0],[0.5,0,0],[0.75,0,0],[1,0,0],[0,1,0],[0.25,1,0],[0.5,1,0],[0.75,1,0],[1,1,0],[0,0.25,0],[0,0.5,0],[0,0.75,0],[1,0.25,0],[1,0.5,0],[1,0.75,0]];outlineConnect=0;fontColor=#232F3E;gradientColor=#4D72F3;gradientDirection=north;fillColor=#3334B9;strokeColor=#ffffff;dashed=0;verticalLabelPosition=bottom;verticalAlign=top;align=center;html=1;fontSize=12;fontStyle=0;aspect=fixed;shape=mxgraph.aws4.resourceIcon;resIcon=mxgraph.aws4.aurora;" parent="1" vertex="1">
                    <mxGeometry x="818" y="1301" width="66" height="66" as="geometry"/>
                </mxCell>
                <mxCell id="191" style="edgeStyle=none;html=1;entryX=0;entryY=0.5;entryDx=0;entryDy=0;entryPerimeter=0;fontColor=#FFFFFF;endArrow=classic;endFill=1;strokeColor=#FFFFFF;exitX=0.75;exitY=0;exitDx=0;exitDy=0;" parent="1" source="188" target="190" edge="1">
                    <mxGeometry relative="1" as="geometry">
                        <Array as="points">
                            <mxPoint x="705" y="1409"/>
                            <mxPoint x="751" y="1409"/>
                            <mxPoint x="751" y="1334"/>
                        </Array>
                    </mxGeometry>
                </mxCell>
                <mxCell id="244" value="save" style="edgeLabel;html=1;align=center;verticalAlign=middle;resizable=0;points=[];fontColor=#FFFFFF;" parent="191" vertex="1" connectable="0">
                    <mxGeometry x="0.1382" y="1" relative="1" as="geometry">
                        <mxPoint as="offset"/>
                    </mxGeometry>
                </mxCell>
                <mxCell id="192" value="" style="group" parent="1" vertex="1" connectable="0">
                    <mxGeometry x="567" y="1088" width="177.5" height="90" as="geometry"/>
                </mxCell>
                <mxCell id="193" value="" style="group" parent="192" vertex="1" connectable="0">
                    <mxGeometry x="-6" width="183.5" height="90" as="geometry"/>
                </mxCell>
                <mxCell id="194" value="whalefin-wallet" style="rounded=0;whiteSpace=wrap;html=1;" parent="193" vertex="1">
                    <mxGeometry x="23.5" y="30" width="160" height="60" as="geometry"/>
                </mxCell>
                <mxCell id="195" value="" style="sketch=0;html=1;dashed=0;whitespace=wrap;fillColor=#2875E2;strokeColor=#ffffff;points=[[0.005,0.63,0],[0.1,0.2,0],[0.9,0.2,0],[0.5,0,0],[0.995,0.63,0],[0.72,0.99,0],[0.5,1,0],[0.28,0.99,0]];shape=mxgraph.kubernetes.icon;prIcon=api;shadow=0;fontSize=12;" parent="193" vertex="1">
                    <mxGeometry width="50" height="48" as="geometry"/>
                </mxCell>
                <mxCell id="196" style="edgeStyle=none;html=1;entryX=0.5;entryY=1;entryDx=0;entryDy=0;fontColor=#FFFFFF;endArrow=classic;endFill=1;strokeColor=#FFFFFF;startArrow=none;" parent="1" source="222" target="194" edge="1">
                    <mxGeometry relative="1" as="geometry"/>
                </mxCell>
                <mxCell id="197" value="get-deposits&lt;br&gt;&amp;lt;createEndTime, createStartTime, ccy&amp;gt;&amp;nbsp;&amp;nbsp;" style="edgeLabel;html=1;align=center;verticalAlign=middle;resizable=0;points=[];fontColor=#FFFFFF;" parent="196" vertex="1" connectable="0">
                    <mxGeometry x="0.2774" y="3" relative="1" as="geometry">
                        <mxPoint y="4" as="offset"/>
                    </mxGeometry>
                </mxCell>
                <mxCell id="199" style="edgeStyle=none;html=1;entryX=0;entryY=0.5;entryDx=0;entryDy=0;fontColor=#FFFFFF;endArrow=classic;endFill=1;strokeColor=#FFFFFF;" parent="1" source="200" target="202" edge="1">
                    <mxGeometry relative="1" as="geometry">
                        <Array as="points">
                            <mxPoint x="1001" y="1423"/>
                            <mxPoint x="1001" y="1471"/>
                        </Array>
                    </mxGeometry>
                </mxCell>
                <mxCell id="200" value="" style="sketch=0;html=1;aspect=fixed;strokeColor=none;shadow=0;align=center;verticalAlign=top;fillColor=#3B8DF1;shape=mxgraph.gcp2.clock" parent="1" vertex="1">
                    <mxGeometry x="978" y="1325" width="45" height="45" as="geometry"/>
                </mxCell>
                <mxCell id="201" value="" style="group" parent="1" vertex="1" connectable="0">
                    <mxGeometry x="1023" y="1411" width="177.5" height="90" as="geometry"/>
                </mxCell>
                <mxCell id="202" value="bitso-whalefin-interest" style="rounded=0;whiteSpace=wrap;html=1;" parent="201" vertex="1">
                    <mxGeometry x="17.5" y="30" width="160" height="60" as="geometry"/>
                </mxCell>
                <mxCell id="203" value="" style="verticalLabelPosition=bottom;html=1;verticalAlign=top;align=center;strokeColor=none;fillColor=#00BEF2;shape=mxgraph.azure.startup_task;pointerEvents=1;labelBackgroundColor=#2A2A2A;fontColor=#FFFFFF;gradientColor=none;shadow=0;" parent="201" vertex="1">
                    <mxGeometry width="47.5" height="50" as="geometry"/>
                </mxCell>
                <mxCell id="226" style="edgeStyle=none;html=1;entryX=0.5;entryY=0;entryDx=0;entryDy=0;entryPerimeter=0;dashed=1;fontColor=#FFFFFF;startArrow=none;startFill=0;endArrow=none;endFill=0;strokeColor=#FFFFFF;" parent="1" source="204" target="216" edge="1">
                    <mxGeometry relative="1" as="geometry"/>
                </mxCell>
                <mxCell id="204" value="&lt;font color=&quot;#ffffff&quot;&gt;whalefin-interest&lt;/font&gt;" style="sketch=0;points=[[0,0,0],[0.25,0,0],[0.5,0,0],[0.75,0,0],[1,0,0],[0,1,0],[0.25,1,0],[0.5,1,0],[0.75,1,0],[1,1,0],[0,0.25,0],[0,0.5,0],[0,0.75,0],[1,0.25,0],[1,0.5,0],[1,0.75,0]];outlineConnect=0;fontColor=#232F3E;gradientColor=#4D72F3;gradientDirection=north;fillColor=#3334B9;strokeColor=#ffffff;dashed=0;verticalLabelPosition=bottom;verticalAlign=top;align=center;html=1;fontSize=12;fontStyle=0;aspect=fixed;shape=mxgraph.aws4.resourceIcon;resIcon=mxgraph.aws4.aurora;" parent="1" vertex="1">
                    <mxGeometry x="1510" y="1301" width="66" height="66" as="geometry"/>
                </mxCell>
                <mxCell id="205" style="edgeStyle=none;html=1;entryX=0;entryY=0.5;entryDx=0;entryDy=0;entryPerimeter=0;fontColor=#FFFFFF;endArrow=classic;endFill=1;strokeColor=#FFFFFF;exitX=0.75;exitY=0;exitDx=0;exitDy=0;" parent="1" source="202" target="204" edge="1">
                    <mxGeometry relative="1" as="geometry">
                        <Array as="points">
                            <mxPoint x="1161" y="1418"/>
                            <mxPoint x="1183" y="1418"/>
                            <mxPoint x="1210" y="1418"/>
                            <mxPoint x="1210" y="1334"/>
                        </Array>
                    </mxGeometry>
                </mxCell>
                <mxCell id="241" value="save" style="edgeLabel;html=1;align=center;verticalAlign=middle;resizable=0;points=[];fontColor=#FFFFFF;" parent="205" vertex="1" connectable="0">
                    <mxGeometry x="-0.6693" y="-1" relative="1" as="geometry">
                        <mxPoint x="-1" y="-59" as="offset"/>
                    </mxGeometry>
                </mxCell>
                <mxCell id="206" value="" style="group" parent="1" vertex="1" connectable="0">
                    <mxGeometry x="1023" y="1088" width="177.5" height="90" as="geometry"/>
                </mxCell>
                <mxCell id="207" value="" style="group" parent="206" vertex="1" connectable="0">
                    <mxGeometry x="-6" width="183.5" height="90" as="geometry"/>
                </mxCell>
                <mxCell id="208" value="whalefin-statement" style="rounded=0;whiteSpace=wrap;html=1;" parent="207" vertex="1">
                    <mxGeometry x="23.5" y="30" width="160" height="60" as="geometry"/>
                </mxCell>
                <mxCell id="209" value="" style="sketch=0;html=1;dashed=0;whitespace=wrap;fillColor=#2875E2;strokeColor=#ffffff;points=[[0.005,0.63,0],[0.1,0.2,0],[0.9,0.2,0],[0.5,0,0],[0.995,0.63,0],[0.72,0.99,0],[0.5,1,0],[0.28,0.99,0]];shape=mxgraph.kubernetes.icon;prIcon=api;shadow=0;fontSize=12;" parent="207" vertex="1">
                    <mxGeometry width="50" height="48" as="geometry"/>
                </mxCell>
                <mxCell id="210" style="edgeStyle=none;html=1;entryX=0.5;entryY=1;entryDx=0;entryDy=0;fontColor=#FFFFFF;endArrow=classic;endFill=1;strokeColor=#FFFFFF;exitX=0.5;exitY=0;exitDx=0;exitDy=0;" parent="1" source="202" target="208" edge="1">
                    <mxGeometry relative="1" as="geometry"/>
                </mxCell>
                <mxCell id="215" value="get-statements&lt;br&gt;&amp;lt;createEndTime, createStartTime, ccy&amp;gt;&lt;br&gt;CURRENT_TERM_INTEREST" style="edgeLabel;html=1;align=center;verticalAlign=middle;resizable=0;points=[];fontColor=#FFFFFF;" parent="210" vertex="1" connectable="0">
                    <mxGeometry x="0.4225" y="-1" relative="1" as="geometry">
                        <mxPoint as="offset"/>
                    </mxGeometry>
                </mxCell>
                <mxCell id="211" value="&lt;font style=&quot;font-size: 10px&quot;&gt;&lt;u&gt;AUM Balance Entries&lt;/u&gt;&lt;/font&gt;&lt;span style=&quot;font-size: 10px&quot;&gt;&lt;br&gt;[Currency] value_in_CeFi&lt;br&gt;&lt;/span&gt;" style="shape=note;size=20;whiteSpace=wrap;html=1;labelBackgroundColor=#2A2A2A;fontColor=#FFFFFF;dashed=1;" parent="1" vertex="1">
                    <mxGeometry x="359" y="1460" width="138" height="77" as="geometry"/>
                </mxCell>
                <mxCell id="213" value="&lt;u style=&quot;font-size: 10px&quot;&gt;Deposit&lt;/u&gt;&lt;br&gt;&lt;br&gt;&lt;div style=&quot;text-align: left&quot;&gt;&lt;span style=&quot;font-size: 10px&quot;&gt;[{ &quot;status&quot;: &quot;COMPLETED&quot;, &lt;br&gt;&amp;nbsp; &amp;nbsp;&quot;id&quot;: &quot;k4WaVAwyQA&quot;,&lt;br&gt;&amp;nbsp; &amp;nbsp;&quot;amount&quot;: &quot;10.00000001&quot;,&lt;br&gt;&amp;nbsp; &amp;nbsp;&quot;chainProtocol&quot;: &quot;ERC20&quot;,&lt;br&gt;&amp;nbsp; &amp;nbsp;&quot;createdAt&quot;: &quot;2020-05-07T10:18:42Z&quot;,&lt;br&gt;&amp;nbsp; &amp;nbsp;&quot;ccy&quot;: &quot;BTC&quot; }]&lt;/span&gt;&lt;/div&gt;" style="shape=note;size=20;whiteSpace=wrap;html=1;labelBackgroundColor=#2A2A2A;fontColor=#FFFFFF;dashed=1;" parent="1" vertex="1">
                    <mxGeometry x="752" y="1525" width="201" height="127" as="geometry"/>
                </mxCell>
                <mxCell id="216" value="&lt;u style=&quot;font-size: 10px&quot;&gt;Yields&lt;br&gt;&lt;/u&gt;&lt;br&gt;&lt;div style=&quot;text-align: left&quot;&gt;&lt;span style=&quot;font-size: 10px&quot;&gt;&amp;nbsp;[&amp;nbsp;&lt;/span&gt;&lt;span style=&quot;font-size: 10px&quot;&gt;{ &quot;currentBalance&quot;: &quot;100020.5220509766&quot;,&lt;/span&gt;&lt;/div&gt;&lt;span style=&quot;font-size: 10px&quot;&gt;&lt;div style=&quot;text-align: left&quot;&gt;&amp;nbsp; &amp;nbsp; &amp;nbsp;&quot;previousBalance&quot;: &quot;100010.685&quot;,&lt;/div&gt;&lt;/span&gt;&lt;span style=&quot;font-size: 10px&quot;&gt;&lt;div style=&quot;text-align: left&quot;&gt;&amp;nbsp; &amp;nbsp; &amp;nbsp;&quot;ccy&quot;: &quot;USD&quot;,&lt;/div&gt;&lt;div style=&quot;text-align: left&quot;&gt;&amp;nbsp; &amp;nbsp; &amp;nbsp;&quot;diff&quot;: &quot;9.8370509766&quot;, &lt;br&gt;&amp;nbsp; &amp;nbsp; &amp;nbsp;&quot;direction&quot;: &quot;IN&quot;,&amp;nbsp; &amp;nbsp; &amp;nbsp; &amp;nbsp; &lt;br&gt;&amp;nbsp; &amp;nbsp; &amp;nbsp;&quot;type&quot;: &quot;CURRENT_TERM_INTEREST&quot;,&amp;nbsp; &amp;nbsp; &amp;nbsp; &amp;nbsp; &amp;nbsp; &amp;nbsp; &amp;nbsp; &amp;nbsp; &amp;nbsp;&quot;createdAt&quot;: &quot;2022-03-10T08:04:14.935Z&quot; }]&lt;/div&gt;&lt;/span&gt;" style="shape=note;size=20;whiteSpace=wrap;html=1;labelBackgroundColor=#2A2A2A;fontColor=#FFFFFF;dashed=1;" parent="1" vertex="1">
                    <mxGeometry x="1433" y="1449" width="227" height="162" as="geometry"/>
                </mxCell>
                <mxCell id="219" value="" style="rounded=0;whiteSpace=wrap;html=1;dashed=1;fontColor=#FFFFFF;align=left;" parent="1" vertex="1">
                    <mxGeometry x="171" y="1381" width="87" height="15" as="geometry"/>
                </mxCell>
                <mxCell id="221" value="" style="rounded=0;whiteSpace=wrap;html=1;dashed=1;fontColor=#FFFFFF;align=left;" parent="1" vertex="1">
                    <mxGeometry x="261" y="1363" width="87" height="15" as="geometry"/>
                </mxCell>
                <mxCell id="223" value="" style="rounded=0;whiteSpace=wrap;html=1;dashed=1;fontColor=#FFFFFF;align=left;" parent="1" vertex="1">
                    <mxGeometry x="709" y="1366" width="87" height="15" as="geometry"/>
                </mxCell>
                <mxCell id="224" value="" style="rounded=0;whiteSpace=wrap;html=1;dashed=1;fontColor=#FFFFFF;align=left;" parent="1" vertex="1">
                    <mxGeometry x="1076" y="1385" width="87" height="15" as="geometry"/>
                </mxCell>
                <mxCell id="225" value="" style="rounded=0;whiteSpace=wrap;html=1;dashed=1;fontColor=#FFFFFF;align=left;" parent="1" vertex="1">
                    <mxGeometry x="1163" y="1367" width="87" height="15" as="geometry"/>
                </mxCell>
                <mxCell id="230" value="" style="endArrow=none;dashed=1;html=1;strokeColor=#FFFFFF;exitX=0.339;exitY=0.979;exitDx=0;exitDy=0;exitPerimeter=0;" parent="1" source="111" edge="1">
                    <mxGeometry width="50" height="50" relative="1" as="geometry">
                        <mxPoint x="967" y="2114" as="sourcePoint"/>
                        <mxPoint x="967" y="1018" as="targetPoint"/>
                    </mxGeometry>
                </mxCell>
                <mxCell id="237" style="edgeStyle=none;html=1;entryX=0.5;entryY=0;entryDx=0;entryDy=0;fontColor=#FFFFFF;startArrow=none;startFill=0;endArrow=classic;endFill=1;strokeColor=#FFFFFF;exitX=0.5;exitY=1;exitDx=0;exitDy=0;" parent="1" source="239" target="235" edge="1">
                    <mxGeometry relative="1" as="geometry"/>
                </mxCell>
                <mxCell id="232" value="" style="rounded=0;whiteSpace=wrap;html=1;dashed=1;fontColor=#FFFFFF;align=left;" parent="1" vertex="1">
                    <mxGeometry x="1254" y="1352" width="87" height="15" as="geometry"/>
                </mxCell>
                <mxCell id="233" style="edgeStyle=none;html=1;entryX=0.25;entryY=1;entryDx=0;entryDy=0;fontColor=#FFFFFF;startArrow=none;startFill=0;endArrow=none;endFill=0;strokeColor=#FFFFFF;exitX=1;exitY=0.25;exitDx=0;exitDy=0;" parent="1" source="202" target="232" edge="1">
                    <mxGeometry relative="1" as="geometry">
                        <Array as="points">
                            <mxPoint x="1240" y="1456"/>
                            <mxPoint x="1240" y="1410"/>
                            <mxPoint x="1276" y="1410"/>
                        </Array>
                    </mxGeometry>
                </mxCell>
                <mxCell id="234" value="" style="group" parent="1" vertex="1" connectable="0">
                    <mxGeometry x="1222" y="1537" width="177.5" height="90" as="geometry"/>
                </mxCell>
                <mxCell id="235" value="bitso-whalefin-yield-calc" style="rounded=0;whiteSpace=wrap;html=1;" parent="234" vertex="1">
                    <mxGeometry x="17.5" y="30" width="160" height="60" as="geometry"/>
                </mxCell>
                <mxCell id="236" value="" style="verticalLabelPosition=bottom;html=1;verticalAlign=top;align=center;strokeColor=none;fillColor=#00BEF2;shape=mxgraph.azure.startup_task;pointerEvents=1;labelBackgroundColor=#2A2A2A;fontColor=#FFFFFF;gradientColor=none;shadow=0;" parent="234" vertex="1">
                    <mxGeometry width="47.5" height="50" as="geometry"/>
                </mxCell>
                <mxCell id="239" value="" style="shape=message;html=1;whiteSpace=wrap;html=1;outlineConnect=0;fontColor=#FFFFFF;" parent="1" vertex="1">
                    <mxGeometry x="1289.5" y="1461" width="60" height="40" as="geometry"/>
                </mxCell>
                <mxCell id="240" value="" style="edgeStyle=none;html=1;entryX=0.5;entryY=0;entryDx=0;entryDy=0;fontColor=#FFFFFF;startArrow=none;startFill=0;endArrow=none;endFill=1;strokeColor=#FFFFFF;exitX=0.75;exitY=1;exitDx=0;exitDy=0;" parent="1" source="232" target="239" edge="1">
                    <mxGeometry relative="1" as="geometry">
                        <mxPoint x="1319.25" y="1367" as="sourcePoint"/>
                        <mxPoint x="1319.5" y="1596" as="targetPoint"/>
                    </mxGeometry>
                </mxCell>
                <mxCell id="246" value="invoke-yield-distribution" style="edgeLabel;html=1;align=center;verticalAlign=middle;resizable=0;points=[];fontColor=#FFFFFF;" parent="240" vertex="1" connectable="0">
                    <mxGeometry x="0.5282" y="2" relative="1" as="geometry">
                        <mxPoint x="-3" y="-2" as="offset"/>
                    </mxGeometry>
                </mxCell>
                <mxCell id="222" value="" style="rounded=0;whiteSpace=wrap;html=1;dashed=1;fontColor=#FFFFFF;align=left;" parent="1" vertex="1">
                    <mxGeometry x="619" y="1382" width="87" height="15" as="geometry"/>
                </mxCell>
                <mxCell id="242" value="" style="edgeStyle=none;html=1;entryX=0.5;entryY=1;entryDx=0;entryDy=0;fontColor=#FFFFFF;endArrow=none;endFill=1;strokeColor=#FFFFFF;" parent="1" source="188" target="222" edge="1">
                    <mxGeometry relative="1" as="geometry">
                        <mxPoint x="664.4999999999998" y="1452" as="sourcePoint"/>
                        <mxPoint x="664.4999999999998" y="1178" as="targetPoint"/>
                    </mxGeometry>
                </mxCell>
                <mxCell id="252" style="edgeStyle=none;html=1;entryX=0.5;entryY=0;entryDx=0;entryDy=0;fontColor=#FFFFFF;startArrow=none;startFill=0;endArrow=classic;endFill=1;strokeColor=#FFFFFF;exitX=0.5;exitY=1;exitDx=0;exitDy=0;" parent="1" source="250" target="290" edge="1">
                    <mxGeometry relative="1" as="geometry">
                        <mxPoint x="1105.9999999999995" y="1761" as="targetPoint"/>
                        <Array as="points">
                            <mxPoint x="1211" y="1744"/>
                            <mxPoint x="1121" y="1744"/>
                        </Array>
                    </mxGeometry>
                </mxCell>
                <mxCell id="253" value="get-deposits&lt;br&gt;COMPLETED" style="edgeLabel;html=1;align=center;verticalAlign=middle;resizable=0;points=[];fontColor=#FFFFFF;" parent="252" vertex="1" connectable="0">
                    <mxGeometry x="-0.6984" y="1" relative="1" as="geometry">
                        <mxPoint as="offset"/>
                    </mxGeometry>
                </mxCell>
                <mxCell id="250" value="" style="rounded=0;whiteSpace=wrap;html=1;dashed=1;fontColor=#FFFFFF;align=left;" parent="1" vertex="1">
                    <mxGeometry x="1167" y="1685" width="87" height="15" as="geometry"/>
                </mxCell>
                <mxCell id="251" style="edgeStyle=none;html=1;entryX=0.5;entryY=0;entryDx=0;entryDy=0;fontColor=#FFFFFF;startArrow=none;startFill=0;endArrow=none;endFill=0;strokeColor=#FFFFFF;exitX=0.25;exitY=1;exitDx=0;exitDy=0;" parent="1" source="235" target="250" edge="1">
                    <mxGeometry relative="1" as="geometry">
                        <mxPoint x="1283" y="1639" as="sourcePoint"/>
                        <Array as="points">
                            <mxPoint x="1280" y="1664"/>
                            <mxPoint x="1252" y="1664"/>
                            <mxPoint x="1211" y="1664"/>
                        </Array>
                    </mxGeometry>
                </mxCell>
                <mxCell id="259" style="edgeStyle=none;html=1;entryX=0.5;entryY=0;entryDx=0;entryDy=0;fontColor=#FFFFFF;startArrow=none;startFill=0;endArrow=none;endFill=0;strokeColor=#FFFFFF;" parent="1" source="255" target="293" edge="1">
                    <mxGeometry relative="1" as="geometry">
                        <mxPoint x="1108" y="1909" as="targetPoint"/>
                        <Array as="points">
                            <mxPoint x="1306" y="1894"/>
                            <mxPoint x="1121" y="1894"/>
                        </Array>
                    </mxGeometry>
                </mxCell>
                <mxCell id="260" value="get-related-deposits" style="edgeLabel;html=1;align=center;verticalAlign=middle;resizable=0;points=[];fontColor=#FFFFFF;" parent="259" vertex="1" connectable="0">
                    <mxGeometry x="-0.7925" y="3" relative="1" as="geometry">
                        <mxPoint x="-3" y="2" as="offset"/>
                    </mxGeometry>
                </mxCell>
                <mxCell id="255" value="" style="rounded=0;whiteSpace=wrap;html=1;dashed=1;fontColor=#FFFFFF;align=left;" parent="1" vertex="1">
                    <mxGeometry x="1262.5" y="1702" width="87" height="15" as="geometry"/>
                </mxCell>
                <mxCell id="258" style="edgeStyle=none;html=1;entryX=0.5;entryY=0;entryDx=0;entryDy=0;fontColor=#FFFFFF;startArrow=none;startFill=0;endArrow=none;endFill=0;strokeColor=#FFFFFF;" parent="1" target="255" edge="1">
                    <mxGeometry relative="1" as="geometry">
                        <mxPoint x="1306" y="1627" as="sourcePoint"/>
                    </mxGeometry>
                </mxCell>
                <mxCell id="261" value="&lt;span style=&quot;color: rgb(240 , 240 , 240)&quot;&gt;&lt;font style=&quot;font-size: 10px&quot;&gt;Interest of Flexible Earn will be distributed at 16:00 (UTC+8) daily and starts accruing once credited to your wallet&lt;/font&gt;&lt;/span&gt;" style="shape=note;size=20;whiteSpace=wrap;html=1;labelBackgroundColor=#2A2A2A;fontColor=#FFFFFF;dashed=1;" parent="1" vertex="1">
                    <mxGeometry x="1287.5" y="1099.25" width="240" height="97.5" as="geometry"/>
                </mxCell>
                <mxCell id="281" style="edgeStyle=none;html=1;entryX=0;entryY=0.5;entryDx=0;entryDy=0;entryPerimeter=0;fontSize=10;fontColor=#FFFFFF;startArrow=none;startFill=0;endArrow=none;endFill=0;strokeColor=#FFFFFF;dashed=1;" parent="1" source="208" target="261" edge="1">
                    <mxGeometry relative="1" as="geometry"/>
                </mxCell>
                <mxCell id="289" value="" style="group" parent="1" vertex="1" connectable="0">
                    <mxGeometry x="1023" y="1749.17" width="177.5" height="90" as="geometry"/>
                </mxCell>
                <mxCell id="290" value="bitso-whalefin-deposit" style="rounded=0;whiteSpace=wrap;html=1;" parent="289" vertex="1">
                    <mxGeometry x="17.5" y="30" width="160" height="60" as="geometry"/>
                </mxCell>
                <mxCell id="291" value="" style="verticalLabelPosition=bottom;html=1;verticalAlign=top;align=center;strokeColor=none;fillColor=#00BEF2;shape=mxgraph.azure.startup_task;pointerEvents=1;labelBackgroundColor=#2A2A2A;fontColor=#FFFFFF;gradientColor=none;shadow=0;" parent="289" vertex="1">
                    <mxGeometry width="47.5" height="50" as="geometry"/>
                </mxCell>
                <mxCell id="292" value="" style="group" parent="1" vertex="1" connectable="0">
                    <mxGeometry x="1023" y="1900" width="177.5" height="90" as="geometry"/>
                </mxCell>
                <mxCell id="293" value="bitso-whalefin-deposit-ccy" style="rounded=0;whiteSpace=wrap;html=1;" parent="292" vertex="1">
                    <mxGeometry x="17.5" y="30" width="160" height="60" as="geometry"/>
                </mxCell>
                <mxCell id="294" value="" style="verticalLabelPosition=bottom;html=1;verticalAlign=top;align=center;strokeColor=none;fillColor=#00BEF2;shape=mxgraph.azure.startup_task;pointerEvents=1;labelBackgroundColor=#2A2A2A;fontColor=#FFFFFF;gradientColor=none;shadow=0;" parent="292" vertex="1">
                    <mxGeometry width="47.5" height="50" as="geometry"/>
                </mxCell>
                <mxCell id="296" value="" style="group" parent="1" vertex="1" connectable="0">
                    <mxGeometry x="2123" y="52" width="1220" height="500" as="geometry"/>
                </mxCell>
                <mxCell id="42" value="" style="rounded=0;whiteSpace=wrap;html=1;" parent="296" vertex="1">
                    <mxGeometry x="10" y="40" width="920" height="400" as="geometry"/>
                </mxCell>
                <mxCell id="40" value="" style="rounded=0;whiteSpace=wrap;html=1;" parent="296" vertex="1">
                    <mxGeometry width="1220" height="500" as="geometry"/>
                </mxCell>
                <mxCell id="41" value="Day #1 Flow - Whalefin Yield Distribution (Flexible)" style="text;html=1;strokeColor=#2D7600;fillColor=#60a917;align=center;verticalAlign=middle;whiteSpace=wrap;rounded=0;fontColor=#ffffff;" parent="296" vertex="1">
                    <mxGeometry width="349" height="30" as="geometry"/>
                </mxCell>
                <mxCell id="43" value="Whalefin Environment" style="text;html=1;strokeColor=none;fillColor=none;align=center;verticalAlign=middle;whiteSpace=wrap;rounded=0;" parent="296" vertex="1">
                    <mxGeometry x="10" y="40" width="140" height="30" as="geometry"/>
                </mxCell>
                <mxCell id="53" value="" style="group" parent="296" vertex="1" connectable="0">
                    <mxGeometry x="120" y="220" width="177.5" height="90" as="geometry"/>
                </mxCell>
                <mxCell id="52" value="whalefin-yield-distribute" style="rounded=0;whiteSpace=wrap;html=1;" parent="53" vertex="1">
                    <mxGeometry x="17.5" y="30" width="160" height="60" as="geometry"/>
                </mxCell>
                <mxCell id="48" value="" style="verticalLabelPosition=bottom;html=1;verticalAlign=top;align=center;strokeColor=none;fillColor=#00BEF2;shape=mxgraph.azure.startup_task;pointerEvents=1;labelBackgroundColor=#2A2A2A;fontColor=#FFFFFF;gradientColor=none;shadow=0;" parent="53" vertex="1">
                    <mxGeometry width="47.5" height="50" as="geometry"/>
                </mxCell>
                <mxCell id="55" value="&lt;span style=&quot;color: rgb(240 , 240 , 240)&quot;&gt;&lt;font style=&quot;font-size: 10px&quot;&gt;Interest of Flexible Earn will be distributed at 16:00 (UTC+8) daily and starts accruing once credited to your wallet&lt;/font&gt;&lt;/span&gt;" style="shape=note;size=20;whiteSpace=wrap;html=1;labelBackgroundColor=#2A2A2A;fontColor=#FFFFFF;dashed=1;" parent="296" vertex="1">
                    <mxGeometry x="120" y="73.75" width="240" height="97.5" as="geometry"/>
                </mxCell>
                <mxCell id="56" style="edgeStyle=none;html=1;entryX=0;entryY=0.5;entryDx=0;entryDy=0;entryPerimeter=0;dashed=1;endArrow=none;endFill=0;" parent="296" source="54" target="55" edge="1">
                    <mxGeometry relative="1" as="geometry"/>
                </mxCell>
                <mxCell id="57" style="edgeStyle=none;html=1;entryX=0;entryY=0.5;entryDx=0;entryDy=0;" parent="296" source="54" target="52" edge="1">
                    <mxGeometry relative="1" as="geometry">
                        <Array as="points">
                            <mxPoint x="53" y="280"/>
                        </Array>
                    </mxGeometry>
                </mxCell>
                <mxCell id="54" value="" style="sketch=0;html=1;aspect=fixed;strokeColor=none;shadow=0;align=center;verticalAlign=top;fillColor=#3B8DF1;shape=mxgraph.gcp2.clock" parent="296" vertex="1">
                    <mxGeometry x="30" y="100" width="45" height="45" as="geometry"/>
                </mxCell>
                <mxCell id="65" value="" style="html=1;points=[];perimeter=orthogonalPerimeter;shadow=0;dashed=1;fontSize=10;gradientColor=none;" parent="296" vertex="1">
                    <mxGeometry x="480" y="130" width="17.3" height="302" as="geometry"/>
                </mxCell>
                <mxCell id="66" value="&lt;font style=&quot;font-size: 12px&quot;&gt;get-balances&lt;/font&gt;" style="html=1;verticalAlign=bottom;endArrow=block;entryX=1;entryY=0;dashed=1;fontSize=10;exitX=0;exitY=0.5;exitDx=0;exitDy=0;" parent="296" source="59" target="65" edge="1">
                    <mxGeometry relative="1" as="geometry">
                        <mxPoint x="589.7600000000002" y="145" as="sourcePoint"/>
                    </mxGeometry>
                </mxCell>
                <mxCell id="58" value="" style="group" parent="296" vertex="1" connectable="0">
                    <mxGeometry x="650" y="70" width="177.5" height="90" as="geometry"/>
                </mxCell>
                <mxCell id="78" value="" style="group" parent="58" vertex="1" connectable="0">
                    <mxGeometry x="-6" width="183.5" height="90" as="geometry"/>
                </mxCell>
                <mxCell id="59" value="whalefin-asset" style="rounded=0;whiteSpace=wrap;html=1;" parent="78" vertex="1">
                    <mxGeometry x="23.5" y="30" width="160" height="60" as="geometry"/>
                </mxCell>
                <mxCell id="77" value="" style="sketch=0;html=1;dashed=0;whitespace=wrap;fillColor=#2875E2;strokeColor=#ffffff;points=[[0.005,0.63,0],[0.1,0.2,0],[0.9,0.2,0],[0.5,0,0],[0.995,0.63,0],[0.72,0.99,0],[0.5,1,0],[0.28,0.99,0]];shape=mxgraph.kubernetes.icon;prIcon=api;shadow=0;fontSize=12;" parent="78" vertex="1">
                    <mxGeometry width="50" height="48" as="geometry"/>
                </mxCell>
                <mxCell id="79" value="" style="group" parent="296" vertex="1" connectable="0">
                    <mxGeometry x="650" y="180" width="177.5" height="90" as="geometry"/>
                </mxCell>
                <mxCell id="80" value="" style="group" parent="79" vertex="1" connectable="0">
                    <mxGeometry x="-6" width="183.5" height="90" as="geometry"/>
                </mxCell>
                <mxCell id="81" value="whalefin-earn" style="rounded=0;whiteSpace=wrap;html=1;" parent="80" vertex="1">
                    <mxGeometry x="23.5" y="30" width="160" height="60" as="geometry"/>
                </mxCell>
                <mxCell id="82" value="" style="sketch=0;html=1;dashed=0;whitespace=wrap;fillColor=#2875E2;strokeColor=#ffffff;points=[[0.005,0.63,0],[0.1,0.2,0],[0.9,0.2,0],[0.5,0,0],[0.995,0.63,0],[0.72,0.99,0],[0.5,1,0],[0.28,0.99,0]];shape=mxgraph.kubernetes.icon;prIcon=api;shadow=0;fontSize=12;" parent="80" vertex="1">
                    <mxGeometry width="50" height="48" as="geometry"/>
                </mxCell>
                <mxCell id="86" value="" style="group;dashed=1;" parent="296" vertex="1" connectable="0">
                    <mxGeometry x="647" y="295" width="183.5" height="90" as="geometry"/>
                </mxCell>
                <mxCell id="90" value="" style="group;dashed=1;" parent="86" vertex="1" connectable="0">
                    <mxGeometry x="7" y="11" width="176.5" height="79" as="geometry"/>
                </mxCell>
                <mxCell id="87" value="whalefin-statement" style="rounded=0;whiteSpace=wrap;html=1;dashed=1;" parent="90" vertex="1">
                    <mxGeometry x="16.5" y="19" width="160" height="60" as="geometry"/>
                </mxCell>
                <mxCell id="89" value="" style="outlineConnect=0;dashed=0;verticalLabelPosition=bottom;verticalAlign=top;align=center;html=1;shape=mxgraph.aws3.ec2;fillColor=#F58534;gradientColor=none;shadow=0;fontSize=12;" parent="90" vertex="1">
                    <mxGeometry width="38.5" height="46.8" as="geometry"/>
                </mxCell>
                <mxCell id="92" value="create-statement" style="edgeLabel;html=1;align=center;verticalAlign=middle;resizable=0;points=[];fontSize=12;" parent="296" vertex="1" connectable="0">
                    <mxGeometry x="576" y="298" as="geometry">
                        <mxPoint x="1" y="41" as="offset"/>
                    </mxGeometry>
                </mxCell>
                <mxCell id="94" value="for-each-ccy" style="html=1;dashed=0;whitespace=wrap;shape=mxgraph.dfd.loop" parent="296" vertex="1">
                    <mxGeometry x="500" y="364" width="78" height="19" as="geometry"/>
                </mxCell>
                <mxCell id="83" style="edgeStyle=none;html=1;entryX=0;entryY=0.5;entryDx=0;entryDy=0;fontSize=12;endArrow=none;endFill=0;startArrow=classic;startFill=1;dashed=1;" parent="296" source="65" target="81" edge="1">
                    <mxGeometry relative="1" as="geometry">
                        <mxPoint x="677.5" y="244" as="targetPoint"/>
                    </mxGeometry>
                </mxCell>
                <mxCell id="84" value="get-apy" style="edgeLabel;html=1;align=center;verticalAlign=middle;resizable=0;points=[];fontSize=12;" parent="83" vertex="1" connectable="0">
                    <mxGeometry x="-0.2591" y="-1" relative="1" as="geometry">
                        <mxPoint x="20" y="-16" as="offset"/>
                    </mxGeometry>
                </mxCell>
                <mxCell id="95" style="edgeStyle=none;html=1;entryX=0.116;entryY=0.497;entryDx=0;entryDy=0;entryPerimeter=0;endArrow=none;endFill=0;dashed=1;" parent="296" source="52" target="65" edge="1">
                    <mxGeometry relative="1" as="geometry"/>
                </mxCell>
                <mxCell id="99" value="&lt;font color=&quot;#ffffff&quot;&gt;BTC Wallet&lt;/font&gt;" style="aspect=fixed;perimeter=ellipsePerimeter;html=1;align=center;shadow=0;dashed=0;fontColor=#4277BB;labelBackgroundColor=#ffffff;fontSize=12;spacingTop=3;image;image=img/lib/ibm/blockchain/wallet.svg;" parent="296" vertex="1">
                    <mxGeometry x="959" y="73.75" width="60" height="60" as="geometry"/>
                </mxCell>
                <mxCell id="91" style="edgeStyle=none;html=1;entryX=0;entryY=0.5;entryDx=0;entryDy=0;dashed=1;fontSize=12;startArrow=none;startFill=0;endArrow=open;endFill=0;" parent="296" source="65" target="87" edge="1">
                    <mxGeometry relative="1" as="geometry"/>
                </mxCell>
                <mxCell id="100" value="&lt;font color=&quot;#ffffff&quot;&gt;USD Wallet&lt;/font&gt;" style="aspect=fixed;perimeter=ellipsePerimeter;html=1;align=center;shadow=0;dashed=0;fontColor=#4277BB;labelBackgroundColor=#ffffff;fontSize=12;spacingTop=3;image;image=img/lib/ibm/blockchain/wallet.svg;" parent="296" vertex="1">
                    <mxGeometry x="959" y="183.75" width="60" height="60" as="geometry"/>
                </mxCell>
                <mxCell id="101" value="&lt;font color=&quot;#ffffff&quot;&gt;&amp;lt;???&amp;gt; Wallet&lt;/font&gt;" style="aspect=fixed;perimeter=ellipsePerimeter;html=1;align=center;shadow=0;dashed=0;fontColor=#4277BB;labelBackgroundColor=#ffffff;fontSize=12;spacingTop=3;image;image=img/lib/ibm/blockchain/wallet.svg;" parent="296" vertex="1">
                    <mxGeometry x="959" y="353.75" width="60" height="60" as="geometry"/>
                </mxCell>
                <mxCell id="98" style="edgeStyle=none;html=1;fontColor=#FFFFFF;strokeColor=#FFFFFF;endArrow=none;endFill=0;dashed=1;" parent="296" source="99" target="101" edge="1">
                    <mxGeometry relative="1" as="geometry"/>
                </mxCell>
                <mxCell id="102" style="edgeStyle=none;html=1;entryX=0;entryY=0.5;entryDx=0;entryDy=0;endArrow=classic;endFill=1;exitX=1;exitY=0.25;exitDx=0;exitDy=0;" parent="296" source="87" target="99" edge="1">
                    <mxGeometry relative="1" as="geometry">
                        <Array as="points">
                            <mxPoint x="890" y="340"/>
                            <mxPoint x="890" y="104"/>
                        </Array>
                    </mxGeometry>
                </mxCell>
                <mxCell id="103" style="edgeStyle=none;html=1;entryX=0;entryY=0.5;entryDx=0;entryDy=0;endArrow=classic;endFill=1;exitX=1;exitY=0.5;exitDx=0;exitDy=0;" parent="296" source="87" target="100" edge="1">
                    <mxGeometry relative="1" as="geometry">
                        <Array as="points">
                            <mxPoint x="922" y="355"/>
                            <mxPoint x="922" y="214"/>
                        </Array>
                    </mxGeometry>
                </mxCell>
                <mxCell id="104" style="edgeStyle=none;html=1;dashed=1;endArrow=classic;endFill=1;exitX=1;exitY=0.75;exitDx=0;exitDy=0;" parent="296" source="87" edge="1">
                    <mxGeometry relative="1" as="geometry">
                        <mxPoint x="971" y="385" as="targetPoint"/>
                        <Array as="points">
                            <mxPoint x="918" y="370"/>
                            <mxPoint x="918" y="385"/>
                        </Array>
                    </mxGeometry>
                </mxCell>
                <mxCell id="105" value="&lt;span style=&quot;background-color: rgb(42 , 42 , 42)&quot;&gt;Bitso Treasury Wallet&lt;/span&gt;" style="html=1;verticalLabelPosition=bottom;align=center;labelBackgroundColor=#ffffff;verticalAlign=top;strokeWidth=2;strokeColor=#0080F0;shadow=0;dashed=0;shape=mxgraph.ios7.icons.wallet;fontColor=#FFFFFF;" parent="296" vertex="1">
                    <mxGeometry x="1100" y="185.75" width="70" height="56" as="geometry"/>
                </mxCell>
                <mxCell id="106" style="edgeStyle=none;html=1;entryX=-0.014;entryY=0.522;entryDx=0;entryDy=0;entryPerimeter=0;endArrow=classic;endFill=1;" parent="296" source="99" target="105" edge="1">
                    <mxGeometry relative="1" as="geometry">
                        <Array as="points">
                            <mxPoint x="1065" y="104"/>
                        </Array>
                    </mxGeometry>
                </mxCell>
                <mxCell id="109" value="&lt;font style=&quot;font-size: 10px&quot;&gt;&lt;u&gt;Calculate yield for each ccy&lt;/u&gt;&lt;br&gt;&lt;br&gt;current-ccy-balance * current-ccy-apy = current-ccy-yield&lt;/font&gt;&lt;u style=&quot;font-size: 10px&quot;&gt;&lt;br&gt;&lt;/u&gt;" style="shape=note;size=20;whiteSpace=wrap;html=1;labelBackgroundColor=#2A2A2A;fontColor=#FFFFFF;dashed=1;" parent="296" vertex="1">
                    <mxGeometry x="60.25" y="369" width="314.5" height="63" as="geometry"/>
                </mxCell>
                <mxCell id="110" style="edgeStyle=none;html=1;entryX=0.5;entryY=0;entryDx=0;entryDy=0;entryPerimeter=0;dashed=1;endArrow=none;endFill=0;strokeColor=#FFFFFF;" parent="296" source="52" target="109" edge="1">
                    <mxGeometry relative="1" as="geometry"/>
                </mxCell>
                <mxCell id="107" style="edgeStyle=none;html=1;endArrow=classic;endFill=1;" parent="296" source="100" target="105" edge="1">
                    <mxGeometry relative="1" as="geometry"/>
                </mxCell>
                <mxCell id="115" value="" style="edgeStyle=none;html=1;dashed=1;endArrow=none;endFill=0;strokeColor=#FFFFFF;" parent="296" source="81" target="59" edge="1">
                    <mxGeometry relative="1" as="geometry"/>
                </mxCell>
                <mxCell id="108" style="edgeStyle=none;html=1;entryX=-0.029;entryY=0.558;entryDx=0;entryDy=0;entryPerimeter=0;endArrow=classic;endFill=1;dashed=1;" parent="296" source="101" target="105" edge="1">
                    <mxGeometry relative="1" as="geometry"/>
                </mxCell>
                <mxCell id="297" value="" style="group" parent="1" vertex="1" connectable="0">
                    <mxGeometry x="918" y="491" width="1145" height="400" as="geometry"/>
                </mxCell>
                <mxCell id="16" value="" style="rounded=0;whiteSpace=wrap;html=1;" parent="297" vertex="1">
                    <mxGeometry x="165" width="980" height="400" as="geometry"/>
                </mxCell>
                <mxCell id="5" value="Op" style="shape=umlActor;verticalLabelPosition=bottom;verticalAlign=top;html=1;outlineConnect=0;" parent="297" vertex="1">
                    <mxGeometry y="86.5" width="30" height="60" as="geometry"/>
                </mxCell>
                <mxCell id="10" value="" style="group" parent="297" vertex="1" connectable="0">
                    <mxGeometry x="185" y="60" width="140" height="85" as="geometry"/>
                </mxCell>
                <mxCell id="7" value="Whalefin Portal" style="rounded=0;whiteSpace=wrap;html=1;" parent="10" vertex="1">
                    <mxGeometry x="20" y="25" width="120" height="60" as="geometry"/>
                </mxCell>
                <mxCell id="9" value="" style="shadow=0;dashed=0;html=1;strokeColor=none;fillColor=#4495D1;labelPosition=center;verticalLabelPosition=bottom;verticalAlign=top;align=center;outlineConnect=0;shape=mxgraph.veeam.portal_admin;" parent="10" vertex="1">
                    <mxGeometry width="44.4" height="48.8" as="geometry"/>
                </mxCell>
                <mxCell id="11" style="edgeStyle=none;html=1;entryX=0;entryY=0.5;entryDx=0;entryDy=0;strokeColor=#FFFFFF;" parent="297" target="7" edge="1">
                    <mxGeometry relative="1" as="geometry">
                        <mxPoint x="30" y="115" as="sourcePoint"/>
                    </mxGeometry>
                </mxCell>
                <mxCell id="12" value="&amp;lt;deposit&amp;gt;" style="text;html=1;strokeColor=none;fillColor=none;align=center;verticalAlign=middle;whiteSpace=wrap;rounded=0;" parent="297" vertex="1">
                    <mxGeometry x="75" y="80" width="60" height="30" as="geometry"/>
                </mxCell>
                <mxCell id="14" value="Flexible Earn" style="rounded=0;whiteSpace=wrap;html=1;" parent="297" vertex="1">
                    <mxGeometry x="515" y="85" width="120" height="60" as="geometry"/>
                </mxCell>
                <mxCell id="15" style="edgeStyle=none;html=1;entryX=0;entryY=0.5;entryDx=0;entryDy=0;strokeColor=#FFFFFF;" parent="297" source="7" target="14" edge="1">
                    <mxGeometry relative="1" as="geometry"/>
                </mxCell>
                <mxCell id="17" value="Whalefin Environment" style="text;html=1;strokeColor=none;fillColor=none;align=center;verticalAlign=middle;whiteSpace=wrap;rounded=0;" parent="297" vertex="1">
                    <mxGeometry x="165" y="2.5" width="140" height="30" as="geometry"/>
                </mxCell>
                <mxCell id="18" value="&amp;lt;ccy-flexible-earn-deposit&amp;gt;" style="text;html=1;strokeColor=none;fillColor=none;align=center;verticalAlign=middle;whiteSpace=wrap;rounded=0;" parent="297" vertex="1">
                    <mxGeometry x="345" y="80" width="150" height="30" as="geometry"/>
                </mxCell>
                <mxCell id="20" value="&lt;font color=&quot;#ffffff&quot;&gt;BTC Wallet&lt;/font&gt;" style="aspect=fixed;perimeter=ellipsePerimeter;html=1;align=center;shadow=0;dashed=0;fontColor=#4277BB;labelBackgroundColor=#ffffff;fontSize=12;spacingTop=3;image;image=img/lib/ibm/blockchain/wallet.svg;" parent="297" vertex="1">
                    <mxGeometry x="775" y="20" width="60" height="60" as="geometry"/>
                </mxCell>
                <mxCell id="26" style="edgeStyle=none;html=1;entryX=0;entryY=0.5;entryDx=0;entryDy=0;fontColor=#FFFFFF;endArrow=classic;endFill=1;strokeColor=#FFFFFF;exitX=1;exitY=0.25;exitDx=0;exitDy=0;" parent="297" source="14" target="20" edge="1">
                    <mxGeometry relative="1" as="geometry">
                        <Array as="points">
                            <mxPoint x="705" y="50"/>
                        </Array>
                    </mxGeometry>
                </mxCell>
                <mxCell id="27" value="&amp;lt;BTC-flex-earn-dep&amp;gt;" style="edgeLabel;html=1;align=center;verticalAlign=middle;resizable=0;points=[];fontColor=#FFFFFF;" parent="26" vertex="1" connectable="0">
                    <mxGeometry x="-0.1279" relative="1" as="geometry">
                        <mxPoint x="15" y="-28" as="offset"/>
                    </mxGeometry>
                </mxCell>
                <mxCell id="21" value="&lt;font color=&quot;#ffffff&quot;&gt;USD Wallet&lt;/font&gt;" style="aspect=fixed;perimeter=ellipsePerimeter;html=1;align=center;shadow=0;dashed=0;fontColor=#4277BB;labelBackgroundColor=#ffffff;fontSize=12;spacingTop=3;image;image=img/lib/ibm/blockchain/wallet.svg;" parent="297" vertex="1">
                    <mxGeometry x="775" y="130" width="60" height="60" as="geometry"/>
                </mxCell>
                <mxCell id="28" style="edgeStyle=none;html=1;entryX=0;entryY=0.5;entryDx=0;entryDy=0;fontColor=#FFFFFF;endArrow=classic;endFill=1;strokeColor=#FFFFFF;exitX=1;exitY=0.75;exitDx=0;exitDy=0;" parent="297" source="14" target="21" edge="1">
                    <mxGeometry relative="1" as="geometry">
                        <Array as="points">
                            <mxPoint x="705" y="160"/>
                        </Array>
                    </mxGeometry>
                </mxCell>
                <mxCell id="30" value="&amp;lt;USD-flex-earn-dep&amp;gt;" style="edgeLabel;html=1;align=center;verticalAlign=middle;resizable=0;points=[];fontColor=#FFFFFF;" parent="28" vertex="1" connectable="0">
                    <mxGeometry x="0.3476" y="-1" relative="1" as="geometry">
                        <mxPoint x="-22" y="19" as="offset"/>
                    </mxGeometry>
                </mxCell>
                <mxCell id="22" value="&lt;font color=&quot;#ffffff&quot;&gt;&amp;lt;???&amp;gt; Wallet&lt;/font&gt;" style="aspect=fixed;perimeter=ellipsePerimeter;html=1;align=center;shadow=0;dashed=0;fontColor=#4277BB;labelBackgroundColor=#ffffff;fontSize=12;spacingTop=3;image;image=img/lib/ibm/blockchain/wallet.svg;" parent="297" vertex="1">
                    <mxGeometry x="775" y="300" width="60" height="60" as="geometry"/>
                </mxCell>
                <mxCell id="34" style="edgeStyle=none;html=1;entryX=0;entryY=0;entryDx=0;entryDy=0;fontColor=#FFFFFF;endArrow=classic;endFill=1;strokeColor=#FFFFFF;exitX=0.5;exitY=1;exitDx=0;exitDy=0;dashed=1;" parent="297" source="14" target="22" edge="1">
                    <mxGeometry relative="1" as="geometry">
                        <Array as="points">
                            <mxPoint x="575" y="309"/>
                        </Array>
                    </mxGeometry>
                </mxCell>
                <mxCell id="24" style="edgeStyle=none;html=1;fontColor=#FFFFFF;strokeColor=#FFFFFF;endArrow=none;endFill=0;dashed=1;" parent="297" source="20" target="22" edge="1">
                    <mxGeometry relative="1" as="geometry"/>
                </mxCell>
                <mxCell id="25" value="&lt;span style=&quot;background-color: rgb(42 , 42 , 42)&quot;&gt;Bitso Treasury Wallet&lt;/span&gt;" style="html=1;verticalLabelPosition=bottom;align=center;labelBackgroundColor=#ffffff;verticalAlign=top;strokeWidth=2;strokeColor=#0080F0;shadow=0;dashed=0;shape=mxgraph.ios7.icons.wallet;fontColor=#FFFFFF;" parent="297" vertex="1">
                    <mxGeometry x="975" y="130" width="70" height="56" as="geometry"/>
                </mxCell>
                <mxCell id="31" style="edgeStyle=none;html=1;entryX=-0.014;entryY=0.286;entryDx=0;entryDy=0;entryPerimeter=0;fontColor=#FFFFFF;endArrow=classic;endFill=1;strokeColor=#FFFFFF;exitX=1;exitY=0.5;exitDx=0;exitDy=0;" parent="297" source="20" target="25" edge="1">
                    <mxGeometry relative="1" as="geometry">
                        <Array as="points"/>
                    </mxGeometry>
                </mxCell>
                <mxCell id="32" style="edgeStyle=none;html=1;entryX=0;entryY=0.5;entryDx=0;entryDy=0;entryPerimeter=0;fontColor=#FFFFFF;endArrow=classic;endFill=1;strokeColor=#FFFFFF;" parent="297" source="21" target="25" edge="1">
                    <mxGeometry relative="1" as="geometry"/>
                </mxCell>
                <mxCell id="36" value="&amp;lt;???-flex-earn-dep&amp;gt;" style="edgeLabel;html=1;align=center;verticalAlign=middle;resizable=0;points=[];fontColor=#FFFFFF;" parent="297" vertex="1" connectable="0">
                    <mxGeometry x="705.002268941361" y="290" as="geometry"/>
                </mxCell>
                <mxCell id="39" style="edgeStyle=none;html=1;entryX=0.5;entryY=1;entryDx=0;entryDy=0;dashed=1;fontColor=#FFFFFF;endArrow=none;endFill=0;strokeColor=#FFFFFF;" parent="297" source="38" target="18" edge="1">
                    <mxGeometry relative="1" as="geometry"/>
                </mxCell>
                <mxCell id="38" value="&lt;font style=&quot;font-size: 10px&quot;&gt;&lt;u&gt;Check&lt;/u&gt;&lt;br&gt;&lt;br&gt;- APY % (7-Day)&lt;br&gt;- CCY (Currency)&lt;/font&gt;" style="shape=note;size=20;whiteSpace=wrap;html=1;labelBackgroundColor=#2A2A2A;fontColor=#FFFFFF;dashed=1;" parent="297" vertex="1">
                    <mxGeometry x="357.5" y="190" width="125" height="80" as="geometry"/>
                </mxCell>
                <mxCell id="47" style="edgeStyle=none;html=1;dashed=1;fontColor=#FFFFFF;endArrow=none;endFill=0;strokeColor=#FFFFFF;" parent="297" source="46" target="25" edge="1">
                    <mxGeometry relative="1" as="geometry"/>
                </mxCell>
                <mxCell id="46" value="&lt;font style=&quot;font-size: 10px&quot;&gt;&lt;u&gt;Address List&lt;br&gt;&lt;br&gt;[&lt;/u&gt;&amp;nbsp;{ &quot;ccy&quot;: &quot;BTC&quot;, &quot;address&quot;: &quot;###&quot; },&amp;nbsp;&lt;br&gt;{ &quot;ccy&quot;: &quot;USD&quot;, &quot;address&quot;: &quot;###&quot; }&amp;nbsp;&lt;/font&gt;&lt;u style=&quot;font-size: 10px&quot;&gt;&lt;font style=&quot;font-size: 10px&quot;&gt;]&lt;/font&gt;&lt;br&gt;&lt;/u&gt;" style="shape=note;size=20;whiteSpace=wrap;html=1;labelBackgroundColor=#2A2A2A;fontColor=#FFFFFF;dashed=1;" parent="297" vertex="1">
                    <mxGeometry x="905" y="300" width="210" height="85" as="geometry"/>
                </mxCell>
                <mxCell id="33" style="edgeStyle=none;html=1;entryX=-0.014;entryY=0.643;entryDx=0;entryDy=0;entryPerimeter=0;fontColor=#FFFFFF;endArrow=classic;endFill=1;strokeColor=#FFFFFF;dashed=1;" parent="297" source="22" target="25" edge="1">
                    <mxGeometry relative="1" as="geometry"/>
                </mxCell>
                <mxCell id="298" value="" style="group" parent="1" vertex="1" connectable="0">
                    <mxGeometry x="73" y="105.0039999999999" width="947.5" height="807.4560000000001" as="geometry"/>
                </mxCell>
                <mxCell id="263" value="" style="html=1;points=[];perimeter=orthogonalPerimeter;shadow=0;dashed=1;fontSize=10;gradientColor=none;" parent="298" vertex="1">
                    <mxGeometry x="396.25" y="228.45600000000013" width="174.5" height="298" as="geometry"/>
                </mxCell>
                <mxCell id="116" value="User #1" style="shape=umlActor;verticalLabelPosition=bottom;verticalAlign=top;html=1;outlineConnect=0;" parent="298" vertex="1">
                    <mxGeometry y="62.45600000000013" width="30" height="60" as="geometry"/>
                </mxCell>
                <mxCell id="117" value="" style="group" parent="298" vertex="1" connectable="0">
                    <mxGeometry x="162" y="37.45600000000013" width="140" height="85" as="geometry"/>
                </mxCell>
                <mxCell id="118" value="Bitso Alpha" style="rounded=0;whiteSpace=wrap;html=1;" parent="117" vertex="1">
                    <mxGeometry x="20" y="25" width="120" height="60" as="geometry"/>
                </mxCell>
                <mxCell id="120" value="" style="verticalLabelPosition=bottom;verticalAlign=top;html=1;shadow=0;dashed=0;strokeWidth=1;shape=mxgraph.android.phone2;strokeColor=#c0c0c0;" parent="117" vertex="1">
                    <mxGeometry x="12" y="3" width="22" height="42.9" as="geometry"/>
                </mxCell>
                <mxCell id="121" style="edgeStyle=none;html=1;entryX=0;entryY=0.5;entryDx=0;entryDy=0;endArrow=classic;endFill=1;strokeColor=#FFFFFF;" parent="298" source="116" target="118" edge="1">
                    <mxGeometry relative="1" as="geometry"/>
                </mxCell>
                <mxCell id="125" value="ccy-deposit" style="edgeLabel;html=1;align=center;verticalAlign=middle;resizable=0;points=[];" parent="121" vertex="1" connectable="0">
                    <mxGeometry x="0.1711" y="-1" relative="1" as="geometry">
                        <mxPoint x="-12" y="-13" as="offset"/>
                    </mxGeometry>
                </mxCell>
                <mxCell id="126" style="edgeStyle=none;html=1;entryX=0;entryY=0.5;entryDx=0;entryDy=0;endArrow=classic;endFill=1;strokeColor=#FFFFFF;" parent="298" source="122" target="118" edge="1">
                    <mxGeometry relative="1" as="geometry"/>
                </mxCell>
                <mxCell id="122" value="User #1" style="shape=umlActor;verticalLabelPosition=bottom;verticalAlign=top;html=1;outlineConnect=0;" parent="298" vertex="1">
                    <mxGeometry y="165.45600000000013" width="30" height="60" as="geometry"/>
                </mxCell>
                <mxCell id="127" style="edgeStyle=none;html=1;entryX=0;entryY=0.5;entryDx=0;entryDy=0;endArrow=classic;endFill=1;strokeColor=#FFFFFF;dashed=1;" parent="298" source="123" target="118" edge="1">
                    <mxGeometry relative="1" as="geometry"/>
                </mxCell>
                <mxCell id="123" value="User #n" style="shape=umlActor;verticalLabelPosition=bottom;verticalAlign=top;html=1;outlineConnect=0;" parent="298" vertex="1">
                    <mxGeometry x="2" y="357.45600000000013" width="30" height="60" as="geometry"/>
                </mxCell>
                <mxCell id="124" style="edgeStyle=none;html=1;entryX=0.5;entryY=0.5;entryDx=0;entryDy=0;entryPerimeter=0;dashed=1;endArrow=none;endFill=0;strokeColor=#FFFFFF;exitX=0.5;exitY=0;exitDx=0;exitDy=0;exitPerimeter=0;" parent="298" source="116" target="123" edge="1">
                    <mxGeometry relative="1" as="geometry"/>
                </mxCell>
                <mxCell id="128" value="ccy-deposit" style="edgeLabel;html=1;align=center;verticalAlign=middle;resizable=0;points=[];" parent="298" vertex="1" connectable="0">
                    <mxGeometry x="89.99565217391319" y="173.45600000000013" as="geometry"/>
                </mxCell>
                <mxCell id="129" value="" style="endArrow=none;dashed=1;html=1;strokeColor=#FFFFFF;" parent="298" edge="1">
                    <mxGeometry width="50" height="50" relative="1" as="geometry">
                        <mxPoint x="337" y="753.9960000000001" as="sourcePoint"/>
                        <mxPoint x="337" y="17.996000000000095" as="targetPoint"/>
                    </mxGeometry>
                </mxCell>
                <mxCell id="130" value="" style="group" parent="298" vertex="1" connectable="0">
                    <mxGeometry x="386" y="32.45600000000013" width="177.5" height="90" as="geometry"/>
                </mxCell>
                <mxCell id="131" value="" style="group" parent="130" vertex="1" connectable="0">
                    <mxGeometry x="-6" width="183.5" height="90" as="geometry"/>
                </mxCell>
                <mxCell id="132" value="deposit-ccy" style="rounded=0;whiteSpace=wrap;html=1;" parent="131" vertex="1">
                    <mxGeometry x="23.5" y="30" width="160" height="60" as="geometry"/>
                </mxCell>
                <mxCell id="133" value="" style="sketch=0;html=1;dashed=0;whitespace=wrap;fillColor=#2875E2;strokeColor=#ffffff;points=[[0.005,0.63,0],[0.1,0.2,0],[0.9,0.2,0],[0.5,0,0],[0.995,0.63,0],[0.72,0.99,0],[0.5,1,0],[0.28,0.99,0]];shape=mxgraph.kubernetes.icon;prIcon=api;shadow=0;fontSize=12;" parent="131" vertex="1">
                    <mxGeometry width="50" height="48" as="geometry"/>
                </mxCell>
                <mxCell id="134" style="edgeStyle=none;html=1;entryX=0;entryY=0.5;entryDx=0;entryDy=0;endArrow=classic;endFill=1;strokeColor=#FFFFFF;" parent="298" source="118" target="132" edge="1">
                    <mxGeometry relative="1" as="geometry"/>
                </mxCell>
                <mxCell id="135" value="&lt;font&gt;CCY User #X Wallet&amp;nbsp;&lt;/font&gt;" style="aspect=fixed;perimeter=ellipsePerimeter;html=1;align=center;shadow=0;dashed=0;fontColor=#FFFFFF;labelBackgroundColor=#ffffff;fontSize=12;spacingTop=3;image;image=img/lib/ibm/blockchain/wallet.svg;" parent="298" vertex="1">
                    <mxGeometry x="453.5" y="295.6260000000002" width="60" height="60" as="geometry"/>
                </mxCell>
                <mxCell id="136" style="edgeStyle=none;html=1;fontColor=#FFFFFF;endArrow=classic;endFill=1;strokeColor=#FFFFFF;" parent="298" source="132" target="139" edge="1">
                    <mxGeometry relative="1" as="geometry"/>
                </mxCell>
                <mxCell id="137" value="&lt;span style=&quot;background-color: rgb(42 , 42 , 42)&quot;&gt;CCY Bitso Wallet&lt;/span&gt;" style="html=1;verticalLabelPosition=bottom;align=center;labelBackgroundColor=#ffffff;verticalAlign=top;strokeWidth=2;strokeColor=#0080F0;shadow=0;dashed=0;shape=mxgraph.ios7.icons.wallet;fontColor=#FFFFFF;" parent="298" vertex="1">
                    <mxGeometry x="448.5" y="432.1260000000002" width="70" height="56" as="geometry"/>
                </mxCell>
                <mxCell id="138" style="edgeStyle=none;html=1;fontColor=#FFFFFF;endArrow=classic;endFill=1;strokeColor=#FFFFFF;" parent="298" source="135" target="137" edge="1">
                    <mxGeometry relative="1" as="geometry"/>
                </mxCell>
                <mxCell id="140" style="edgeStyle=none;html=1;entryX=0.5;entryY=0;entryDx=0;entryDy=0;fontColor=#FFFFFF;endArrow=classic;endFill=1;strokeColor=#FFFFFF;dashed=1;" parent="298" source="139" target="135" edge="1">
                    <mxGeometry relative="1" as="geometry"/>
                </mxCell>
                <mxCell id="141" value="deposity-ccy-user" style="edgeLabel;html=1;align=center;verticalAlign=middle;resizable=0;points=[];fontColor=#FFFFFF;" parent="140" vertex="1" connectable="0">
                    <mxGeometry x="-0.2381" y="1" relative="1" as="geometry">
                        <mxPoint x="-1" y="-20" as="offset"/>
                    </mxGeometry>
                </mxCell>
                <mxCell id="264" value="&amp;lt;DoBitsoThings&amp;gt;" style="edgeLabel;html=1;align=center;verticalAlign=middle;resizable=0;points=[];fontColor=#FFFFFF;" parent="140" vertex="1" connectable="0">
                    <mxGeometry x="0.3856" y="1" relative="1" as="geometry">
                        <mxPoint as="offset"/>
                    </mxGeometry>
                </mxCell>
                <mxCell id="139" value="" style="html=1;points=[];perimeter=orthogonalPerimeter;shadow=0;dashed=1;fontSize=10;gradientColor=none;" parent="298" vertex="1">
                    <mxGeometry x="402.5" y="150.45600000000013" width="174.5" height="15" as="geometry"/>
                </mxCell>
                <mxCell id="265" value="" style="html=1;points=[];perimeter=orthogonalPerimeter;shadow=0;dashed=1;fontSize=10;gradientColor=none;" parent="298" vertex="1">
                    <mxGeometry x="588.25" y="173.45600000000013" width="174.5" height="15" as="geometry"/>
                </mxCell>
                <mxCell id="267" style="edgeStyle=none;html=1;entryX=0.527;entryY=0.067;entryDx=0;entryDy=0;entryPerimeter=0;fontColor=#FFFFFF;startArrow=none;startFill=0;endArrow=none;endFill=0;strokeColor=#FFFFFF;" parent="298" source="132" target="265" edge="1">
                    <mxGeometry relative="1" as="geometry">
                        <Array as="points">
                            <mxPoint x="680" y="92.45600000000013"/>
                            <mxPoint x="680" y="131.45600000000013"/>
                        </Array>
                    </mxGeometry>
                </mxCell>
                <mxCell id="269" value="" style="group" parent="298" vertex="1" connectable="0">
                    <mxGeometry x="582" y="345.45600000000013" width="177.5" height="90" as="geometry"/>
                </mxCell>
                <mxCell id="270" value="bitso-whalefin-deposit-ccy" style="rounded=0;whiteSpace=wrap;html=1;" parent="269" vertex="1">
                    <mxGeometry x="17.5" y="30" width="160" height="60" as="geometry"/>
                </mxCell>
                <mxCell id="271" value="" style="verticalLabelPosition=bottom;html=1;verticalAlign=top;align=center;strokeColor=none;fillColor=#00BEF2;shape=mxgraph.azure.startup_task;pointerEvents=1;labelBackgroundColor=#2A2A2A;fontColor=#FFFFFF;gradientColor=none;shadow=0;" parent="269" vertex="1">
                    <mxGeometry width="47.5" height="50" as="geometry"/>
                </mxCell>
                <mxCell id="272" style="edgeStyle=none;html=1;entryX=0.5;entryY=0;entryDx=0;entryDy=0;fontColor=#FFFFFF;startArrow=none;startFill=0;endArrow=classic;endFill=1;strokeColor=#FFFFFF;exitX=0.525;exitY=1.037;exitDx=0;exitDy=0;exitPerimeter=0;" parent="298" source="265" target="270" edge="1">
                    <mxGeometry relative="1" as="geometry">
                        <Array as="points"/>
                    </mxGeometry>
                </mxCell>
                <mxCell id="273" value="invoke-relate-whalefin-deposit" style="edgeLabel;html=1;align=center;verticalAlign=middle;resizable=0;points=[];fontColor=#FFFFFF;" parent="272" vertex="1" connectable="0">
                    <mxGeometry x="-0.7607" y="2" relative="1" as="geometry">
                        <mxPoint as="offset"/>
                    </mxGeometry>
                </mxCell>
                <mxCell id="284" style="edgeStyle=none;html=1;entryX=0.5;entryY=0;entryDx=0;entryDy=0;entryPerimeter=0;fontSize=10;fontColor=#FFFFFF;startArrow=none;startFill=0;endArrow=classic;endFill=1;strokeColor=#FFFFFF;" parent="298" source="285" edge="1">
                    <mxGeometry relative="1" as="geometry">
                        <mxPoint x="860.25" y="466.45600000000013" as="targetPoint"/>
                    </mxGeometry>
                </mxCell>
                <mxCell id="274" value="" style="html=1;points=[];perimeter=orthogonalPerimeter;shadow=0;dashed=1;fontSize=10;gradientColor=none;" parent="298" vertex="1">
                    <mxGeometry x="773" y="196.45600000000013" width="174.5" height="15" as="geometry"/>
                </mxCell>
                <mxCell id="275" value="&lt;font color=&quot;#ffffff&quot;&gt;whalefin-wallet-deposits&lt;/font&gt;" style="sketch=0;points=[[0,0,0],[0.25,0,0],[0.5,0,0],[0.75,0,0],[1,0,0],[0,1,0],[0.25,1,0],[0.5,1,0],[0.75,1,0],[1,1,0],[0,0.25,0],[0,0.5,0],[0,0.75,0],[1,0.25,0],[1,0.5,0],[1,0.75,0]];outlineConnect=0;fontColor=#232F3E;gradientColor=#4D72F3;gradientDirection=north;fillColor=#3334B9;strokeColor=#ffffff;dashed=0;verticalLabelPosition=bottom;verticalAlign=top;align=center;html=1;fontSize=12;fontStyle=0;aspect=fixed;shape=mxgraph.aws4.resourceIcon;resIcon=mxgraph.aws4.aurora;" parent="298" vertex="1">
                    <mxGeometry x="645" y="506.45600000000013" width="66" height="66" as="geometry"/>
                </mxCell>
                <mxCell id="276" value="&lt;u style=&quot;font-size: 10px&quot;&gt;Wallet Deposits&lt;br&gt;&lt;/u&gt;&lt;br&gt;&lt;font style=&quot;font-size: 10px&quot;&gt;somehow relates information about&amp;nbsp;&lt;br&gt;&amp;lt; user#-ccy-amount&amp;nbsp; &amp;gt;&lt;br&gt;&lt;/font&gt;" style="shape=note;size=20;whiteSpace=wrap;html=1;labelBackgroundColor=#2A2A2A;fontColor=#FFFFFF;dashed=1;align=center;" parent="298" vertex="1">
                    <mxGeometry x="566" y="655.4560000000001" width="227" height="92" as="geometry"/>
                </mxCell>
                <mxCell id="278" style="edgeStyle=none;html=1;entryX=0.5;entryY=0;entryDx=0;entryDy=0;entryPerimeter=0;dashed=1;fontSize=10;fontColor=#FFFFFF;startArrow=none;startFill=0;endArrow=none;endFill=0;strokeColor=#FFFFFF;" parent="298" source="270" target="275" edge="1">
                    <mxGeometry relative="1" as="geometry"/>
                </mxCell>
                <mxCell id="279" value="save" style="edgeLabel;html=1;align=center;verticalAlign=middle;resizable=0;points=[];fontSize=10;fontColor=#FFFFFF;" parent="278" vertex="1" connectable="0">
                    <mxGeometry x="-0.1102" y="-1" relative="1" as="geometry">
                        <mxPoint as="offset"/>
                    </mxGeometry>
                </mxCell>
                <mxCell id="277" style="edgeStyle=none;html=1;entryX=0.5;entryY=0;entryDx=0;entryDy=0;entryPerimeter=0;fontColor=#FFFFFF;startArrow=none;startFill=0;endArrow=none;endFill=0;strokeColor=#FFFFFF;dashed=1;" parent="298" source="275" target="276" edge="1">
                    <mxGeometry relative="1" as="geometry"/>
                </mxCell>
                <mxCell id="280" style="edgeStyle=none;html=1;fontSize=10;fontColor=#FFFFFF;startArrow=none;startFill=0;endArrow=none;endFill=0;strokeColor=#FFFFFF;exitX=1;exitY=0.5;exitDx=0;exitDy=0;" parent="298" source="132" target="274" edge="1">
                    <mxGeometry relative="1" as="geometry">
                        <Array as="points">
                            <mxPoint x="860" y="92.45600000000013"/>
                        </Array>
                    </mxGeometry>
                </mxCell>
                <mxCell id="283" value="" style="shape=message;html=1;whiteSpace=wrap;html=1;outlineConnect=0;fontColor=#FFFFFF;" parent="298" vertex="1">
                    <mxGeometry x="649.5" y="266.45600000000013" width="60" height="40" as="geometry"/>
                </mxCell>
                <mxCell id="285" value="" style="shape=message;html=1;whiteSpace=wrap;html=1;outlineConnect=0;fontColor=#FFFFFF;" parent="298" vertex="1">
                    <mxGeometry x="830.25" y="317.45600000000013" width="60" height="40" as="geometry"/>
                </mxCell>
                <mxCell id="286" value="" style="edgeStyle=none;html=1;entryX=0.5;entryY=0;entryDx=0;entryDy=0;entryPerimeter=0;fontSize=10;fontColor=#FFFFFF;startArrow=none;startFill=0;endArrow=none;endFill=1;strokeColor=#FFFFFF;" parent="298" source="274" target="285" edge="1">
                    <mxGeometry relative="1" as="geometry">
                        <mxPoint x="860.2500000000005" y="211.4559999999999" as="sourcePoint"/>
                        <mxPoint x="860.2500000000005" y="466.4559999999999" as="targetPoint"/>
                    </mxGeometry>
                </mxCell>
                <mxCell id="287" value="&lt;span style=&quot;color: rgba(0 , 0 , 0 , 0) ; font-family: monospace ; font-size: 0px&quot;&gt;%3CmxGraphModel%3E%3Croot%3E%3CmxCell%20id%3D%220%22%2F%3E%3CmxCell%20id%3D%221%22%20parent%3D%220%22%2F%3E%3CmxCell%20id%3D%222%22%20value%3D%22invoke-relate-whalefin-deposit%22%20style%3D%22edgeLabel%3Bhtml%3D1%3Balign%3Dcenter%3BverticalAlign%3Dmiddle%3Bresizable%3D0%3Bpoints%3D%5B%5D%3BfontColor%3D%23FFFFFF%3B%22%20vertex%3D%221%22%20connectable%3D%220%22%20parent%3D%221%22%3E%3CmxGeometry%20x%3D%222488.8185388238867%22%20y%3D%221152.167541458493%22%20as%3D%22geometry%22%2F%3E%3C%2FmxCell%3E%3C%2Froot%3E%3C%2FmxGraphModel%3&lt;/span&gt;&lt;span style=&quot;color: rgba(0 , 0 , 0 , 0) ; font-family: monospace ; font-size: 0px&quot;&gt;%3CmxGraphModel%3E%3Croot%3E%3CmxCell%20id%3D%220%22%2F%3E%3CmxCell%20id%3D%221%22%20parent%3D%220%22%2F%3E%3CmxCell%20id%3D%222%22%20value%3D%22invoke-relate-whalefin-deposit%22%20style%3D%22edgeLabel%3Bhtml%3D1%3Balign%3Dcenter%3BverticalAlign%3Dmiddle%3Bresizable%3D0%3Bpoints%3D%5B%5D%3BfontColor%3D%23FFFFFF%3B%22%20vertex%3D%221%22%20connectable%3D%220%22%20parent%3D%221%22%3E%3CmxGeometry%20x%3D%222488.8185388238867%22%20y%3D%221152.167541458493%22%20as%3D%22geometry%22%2F%3E%3C%2FmxCell%3E%3C%2Froot%3E%3C%2FmxGraphModel%3E&lt;/span&gt;" style="edgeLabel;html=1;align=center;verticalAlign=middle;resizable=0;points=[];fontSize=10;fontColor=#FFFFFF;" parent="286" vertex="1" connectable="0">
                    <mxGeometry x="-0.2781" y="-1" relative="1" as="geometry">
                        <mxPoint as="offset"/>
                    </mxGeometry>
                </mxCell>
                <mxCell id="288" value="&lt;span style=&quot;font-size: 11px&quot;&gt;invoke-whalefin-ops-deposit&lt;/span&gt;" style="edgeLabel;html=1;align=center;verticalAlign=middle;resizable=0;points=[];fontSize=10;fontColor=#FFFFFF;" parent="286" vertex="1" connectable="0">
                    <mxGeometry x="-0.1468" y="-1" relative="1" as="geometry">
                        <mxPoint as="offset"/>
                    </mxGeometry>
                </mxCell>
                <mxCell id="303" value="&lt;span style=&quot;color: rgb(240 , 240 , 240) ; font-family: &amp;#34;helvetica&amp;#34; ; font-size: 12px ; font-style: normal ; font-weight: 400 ; letter-spacing: normal ; text-align: center ; text-indent: 0px ; text-transform: none ; word-spacing: 0px ; background-color: rgb(42 , 42 , 42) ; display: inline ; float: none&quot;&gt;Bitso Environment&lt;/span&gt;" style="text;whiteSpace=wrap;html=1;" parent="298" vertex="1">
                    <mxGeometry x="-16.003333333333472" y="4.457111111111061" width="137" height="28" as="geometry"/>
                </mxCell>
                <mxCell id="300" value="" style="endArrow=classic;html=1;fontSize=10;fontColor=#FFFFFF;strokeColor=#FFFFFF;endSize=12;startSize=12;strokeWidth=4;" parent="1" edge="1">
                    <mxGeometry width="50" height="50" relative="1" as="geometry">
                        <mxPoint x="1597" y="403" as="sourcePoint"/>
                        <mxPoint x="1731" y="250" as="targetPoint"/>
                        <Array as="points">
                            <mxPoint x="1597" y="250"/>
                        </Array>
                    </mxGeometry>
                </mxCell>
                <mxCell id="304" value="&lt;font color=&quot;#ffffff&quot;&gt;whalefin-wallet-interest&lt;/font&gt;" style="sketch=0;points=[[0,0,0],[0.25,0,0],[0.5,0,0],[0.75,0,0],[1,0,0],[0,1,0],[0.25,1,0],[0.5,1,0],[0.75,1,0],[1,1,0],[0,0.25,0],[0,0.5,0],[0,0.75,0],[1,0.25,0],[1,0.5,0],[1,0.75,0]];outlineConnect=0;fontColor=#232F3E;gradientColor=#4D72F3;gradientDirection=north;fillColor=#3334B9;strokeColor=#ffffff;dashed=0;verticalLabelPosition=bottom;verticalAlign=top;align=center;html=1;fontSize=12;fontStyle=0;aspect=fixed;shape=mxgraph.aws4.resourceIcon;resIcon=mxgraph.aws4.aurora;" parent="1" vertex="1">
                    <mxGeometry x="1662.5" y="1669" width="66" height="66" as="geometry"/>
                </mxCell>
                <mxCell id="307" style="edgeStyle=none;html=1;entryX=0.5;entryY=0;entryDx=0;entryDy=0;fontSize=10;fontColor=#FFFFFF;startArrow=none;startFill=0;endArrow=classic;endFill=1;startSize=6;endSize=6;strokeColor=#FFFFFF;strokeWidth=1;exitX=0.594;exitY=1.008;exitDx=0;exitDy=0;exitPerimeter=0;" parent="1" source="235" edge="1">
                    <mxGeometry relative="1" as="geometry">
                        <mxPoint x="1359.5" y="1626.9999999999995" as="sourcePoint"/>
                        <mxPoint x="1399.0000000000005" y="1816.17" as="targetPoint"/>
                        <Array as="points">
                            <mxPoint x="1335" y="1650"/>
                            <mxPoint x="1335" y="1672"/>
                            <mxPoint x="1400" y="1672"/>
                        </Array>
                    </mxGeometry>
                </mxCell>
                <mxCell id="320" value="calc" style="edgeLabel;html=1;align=center;verticalAlign=middle;resizable=0;points=[];fontSize=10;fontColor=#FFFFFF;" parent="307" vertex="1" connectable="0">
                    <mxGeometry x="0.6237" y="1" relative="1" as="geometry">
                        <mxPoint as="offset"/>
                    </mxGeometry>
                </mxCell>
                <mxCell id="314" value="" style="group" parent="1" vertex="1" connectable="0">
                    <mxGeometry x="1313" y="1799" width="158.5" height="50.17000000000007" as="geometry"/>
                </mxCell>
                <mxCell id="311" value="calc-owner-interests" style="shape=process;whiteSpace=wrap;html=1;backgroundOutline=1;fontSize=10;fontColor=#FFFFFF;" parent="314" vertex="1">
                    <mxGeometry x="13.5" y="17.170000000000073" width="145" height="33" as="geometry"/>
                </mxCell>
                <mxCell id="312" value="" style="sketch=0;html=1;dashed=0;whitespace=wrap;fillColor=#2875E2;strokeColor=#ffffff;points=[[0.005,0.63,0],[0.1,0.2,0],[0.9,0.2,0],[0.5,0,0],[0.995,0.63,0],[0.72,0.99,0],[0.5,1,0],[0.28,0.99,0]];shape=mxgraph.kubernetes.icon;prIcon=job;fontSize=10;fontColor=#FFFFFF;" parent="314" vertex="1">
                    <mxGeometry width="34" height="32.64" as="geometry"/>
                </mxCell>
                <mxCell id="315" style="edgeStyle=none;html=1;entryX=0;entryY=0.5;entryDx=0;entryDy=0;dashed=1;fontSize=10;fontColor=#FFFFFF;startArrow=none;startFill=0;endArrow=none;endFill=0;startSize=6;endSize=6;strokeColor=#FFFFFF;strokeWidth=1;" parent="1" source="311" target="309" edge="1">
                    <mxGeometry relative="1" as="geometry">
                        <Array as="points">
                            <mxPoint x="1400" y="1914"/>
                        </Array>
                    </mxGeometry>
                </mxCell>
                <mxCell id="295" value="" style="rounded=0;whiteSpace=wrap;html=1;dashed=1;fontColor=#FFFFFF;align=left;" parent="1" vertex="1">
                    <mxGeometry x="1354" y="1726" width="87" height="15" as="geometry"/>
                </mxCell>
                <mxCell id="321" style="edgeStyle=none;html=1;entryX=0;entryY=0.5;entryDx=0;entryDy=0;entryPerimeter=0;fontSize=10;fontColor=#FFFFFF;startArrow=none;startFill=0;endArrow=classic;endFill=1;startSize=6;endSize=6;strokeColor=#FFFFFF;strokeWidth=1;" parent="1" source="316" target="304" edge="1">
                    <mxGeometry relative="1" as="geometry">
                        <Array as="points">
                            <mxPoint x="1491" y="1796"/>
                            <mxPoint x="1585" y="1796"/>
                            <mxPoint x="1585" y="1702"/>
                        </Array>
                    </mxGeometry>
                </mxCell>
                <mxCell id="323" value="save" style="edgeLabel;html=1;align=center;verticalAlign=middle;resizable=0;points=[];fontSize=10;fontColor=#FFFFFF;" parent="321" vertex="1" connectable="0">
                    <mxGeometry x="0.1872" y="-2" relative="1" as="geometry">
                        <mxPoint as="offset"/>
                    </mxGeometry>
                </mxCell>
                <mxCell id="316" value="" style="rounded=0;whiteSpace=wrap;html=1;dashed=1;fontColor=#FFFFFF;align=left;" parent="1" vertex="1">
                    <mxGeometry x="1447" y="1749.17" width="87" height="15" as="geometry"/>
                </mxCell>
                <mxCell id="319" style="edgeStyle=none;html=1;entryX=0.5;entryY=0;entryDx=0;entryDy=0;fontSize=10;fontColor=#FFFFFF;startArrow=none;startFill=0;endArrow=none;endFill=0;startSize=6;endSize=6;strokeColor=#FFFFFF;strokeWidth=1;exitX=0.828;exitY=0.988;exitDx=0;exitDy=0;exitPerimeter=0;" parent="1" source="235" target="316" edge="1">
                    <mxGeometry relative="1" as="geometry">
                        <Array as="points">
                            <mxPoint x="1372" y="1658"/>
                            <mxPoint x="1491" y="1658"/>
                        </Array>
                    </mxGeometry>
                </mxCell>
                <mxCell id="322" value="" style="endArrow=none;dashed=1;html=1;strokeColor=#FFFFFF;" parent="1" edge="1">
                    <mxGeometry width="50" height="50" relative="1" as="geometry">
                        <mxPoint x="1885" y="2117" as="sourcePoint"/>
                        <mxPoint x="1887" y="1018" as="targetPoint"/>
                    </mxGeometry>
                </mxCell>
                <mxCell id="327" style="edgeStyle=none;html=1;entryX=0;entryY=0.5;entryDx=0;entryDy=0;fontColor=#FFFFFF;endArrow=classic;endFill=1;strokeColor=#FFFFFF;" parent="1" source="328" target="330" edge="1">
                    <mxGeometry relative="1" as="geometry">
                        <Array as="points">
                            <mxPoint x="1926" y="1426"/>
                            <mxPoint x="1926" y="1474"/>
                        </Array>
                    </mxGeometry>
                </mxCell>
                <mxCell id="328" value="" style="sketch=0;html=1;aspect=fixed;strokeColor=none;shadow=0;align=center;verticalAlign=top;fillColor=#3B8DF1;shape=mxgraph.gcp2.clock" parent="1" vertex="1">
                    <mxGeometry x="1903" y="1328" width="45" height="45" as="geometry"/>
                </mxCell>
                <mxCell id="329" value="" style="group" parent="1" vertex="1" connectable="0">
                    <mxGeometry x="1948" y="1414" width="198" height="90" as="geometry"/>
                </mxCell>
                <mxCell id="330" value="bitso-whalefin-yield-distribute" style="rounded=0;whiteSpace=wrap;html=1;" parent="329" vertex="1">
                    <mxGeometry x="17.5" y="30" width="180.5" height="60" as="geometry"/>
                </mxCell>
                <mxCell id="331" value="" style="verticalLabelPosition=bottom;html=1;verticalAlign=top;align=center;strokeColor=none;fillColor=#00BEF2;shape=mxgraph.azure.startup_task;pointerEvents=1;labelBackgroundColor=#2A2A2A;fontColor=#FFFFFF;gradientColor=none;shadow=0;" parent="329" vertex="1">
                    <mxGeometry width="47.5" height="50" as="geometry"/>
                </mxCell>
                <mxCell id="332" value="" style="group" parent="1" vertex="1" connectable="0">
                    <mxGeometry x="1961" y="1709" width="177.5" height="90" as="geometry"/>
                </mxCell>
                <mxCell id="333" value="bitso-whalefin-yield-calc" style="rounded=0;whiteSpace=wrap;html=1;" parent="332" vertex="1">
                    <mxGeometry x="17.5" y="30" width="160" height="60" as="geometry"/>
                </mxCell>
                <mxCell id="334" value="" style="verticalLabelPosition=bottom;html=1;verticalAlign=top;align=center;strokeColor=none;fillColor=#00BEF2;shape=mxgraph.azure.startup_task;pointerEvents=1;labelBackgroundColor=#2A2A2A;fontColor=#FFFFFF;gradientColor=none;shadow=0;" parent="332" vertex="1">
                    <mxGeometry width="47.5" height="50" as="geometry"/>
                </mxCell>
                <mxCell id="335" style="edgeStyle=none;html=1;entryX=0.5;entryY=0;entryDx=0;entryDy=0;fontSize=10;fontColor=#FFFFFF;startArrow=none;startFill=0;endArrow=classic;endFill=1;startSize=6;endSize=6;strokeColor=#FFFFFF;strokeWidth=1;" parent="1" source="330" target="333" edge="1">
                    <mxGeometry relative="1" as="geometry"/>
                </mxCell>
                <mxCell id="336" value="get-whalefin-yields" style="edgeLabel;html=1;align=center;verticalAlign=middle;resizable=0;points=[];fontSize=10;fontColor=#FFFFFF;" parent="335" vertex="1" connectable="0">
                    <mxGeometry x="0.0553" y="-1" relative="1" as="geometry">
                        <mxPoint as="offset"/>
                    </mxGeometry>
                </mxCell>
                <mxCell id="337" value="" style="rounded=0;whiteSpace=wrap;html=1;dashed=1;fontColor=#FFFFFF;align=left;" parent="1" vertex="1">
                    <mxGeometry x="2012" y="1563.5" width="87" height="15" as="geometry"/>
                </mxCell>
                <mxCell id="338" value="" style="sketch=0;html=1;dashed=0;whitespace=wrap;fillColor=#2875E2;strokeColor=#ffffff;points=[[0.005,0.63,0],[0.1,0.2,0],[0.9,0.2,0],[0.5,0,0],[0.995,0.63,0],[0.72,0.99,0],[0.5,1,0],[0.28,0.99,0]];shape=mxgraph.kubernetes.icon;prIcon=api;fontSize=10;fontColor=#FFFFFF;" parent="1" vertex="1">
                    <mxGeometry x="987" y="1777" width="50" height="48" as="geometry"/>
                </mxCell>
                <mxCell id="339" value="" style="sketch=0;html=1;dashed=0;whitespace=wrap;fillColor=#2875E2;strokeColor=#ffffff;points=[[0.005,0.63,0],[0.1,0.2,0],[0.9,0.2,0],[0.5,0,0],[0.995,0.63,0],[0.72,0.99,0],[0.5,1,0],[0.28,0.99,0]];shape=mxgraph.kubernetes.icon;prIcon=api;fontSize=10;fontColor=#FFFFFF;" parent="1" vertex="1">
                    <mxGeometry x="984" y="1921" width="50" height="48" as="geometry"/>
                </mxCell>
                <mxCell id="340" value="" style="sketch=0;html=1;dashed=0;whitespace=wrap;fillColor=#2875E2;strokeColor=#ffffff;points=[[0.005,0.63,0],[0.1,0.2,0],[0.9,0.2,0],[0.5,0,0],[0.995,0.63,0],[0.72,0.99,0],[0.5,1,0],[0.28,0.99,0]];shape=mxgraph.kubernetes.icon;prIcon=api;fontSize=10;fontColor=#FFFFFF;" parent="1" vertex="1">
                    <mxGeometry x="1923" y="1730" width="50" height="48" as="geometry"/>
                </mxCell>
                <mxCell id="347" style="edgeStyle=none;html=1;entryX=0;entryY=0.5;entryDx=0;entryDy=0;fontSize=10;fontColor=#FFFFFF;startArrow=none;startFill=0;endArrow=none;endFill=0;startSize=6;endSize=6;strokeColor=#FFFFFF;strokeWidth=1;" parent="1" target="346" edge="1">
                    <mxGeometry relative="1" as="geometry">
                        <mxPoint x="2150.5609756097556" y="1573" as="sourcePoint"/>
                        <Array as="points">
                            <mxPoint x="2151" y="1627"/>
                            <mxPoint x="2151" y="1702"/>
                        </Array>
                    </mxGeometry>
                </mxCell>
                <mxCell id="348" value="invoke-wallet-distribution" style="edgeLabel;html=1;align=center;verticalAlign=middle;resizable=0;points=[];fontSize=10;fontColor=#FFFFFF;" parent="347" vertex="1" connectable="0">
                    <mxGeometry x="0.0512" y="1" relative="1" as="geometry">
                        <mxPoint x="3" y="-34" as="offset"/>
                    </mxGeometry>
                </mxCell>
                <mxCell id="341" value="" style="rounded=0;whiteSpace=wrap;html=1;dashed=1;fontColor=#FFFFFF;align=left;" parent="1" vertex="1">
                    <mxGeometry x="2107" y="1588" width="87" height="15" as="geometry"/>
                </mxCell>
                <mxCell id="342" style="edgeStyle=none;html=1;entryX=0.5;entryY=0;entryDx=0;entryDy=0;fontSize=10;fontColor=#FFFFFF;startArrow=none;startFill=0;endArrow=none;endFill=0;startSize=6;endSize=6;strokeColor=#FFFFFF;strokeWidth=1;exitX=0.75;exitY=1;exitDx=0;exitDy=0;" parent="1" source="330" target="341" edge="1">
                    <mxGeometry relative="1" as="geometry">
                        <Array as="points">
                            <mxPoint x="2101" y="1546"/>
                            <mxPoint x="2151" y="1546"/>
                        </Array>
                    </mxGeometry>
                </mxCell>
                <mxCell id="350" style="edgeStyle=none;html=1;entryX=0.5;entryY=0;entryDx=0;entryDy=0;fontSize=10;fontColor=#FFFFFF;startArrow=none;startFill=0;endArrow=none;endFill=0;startSize=6;endSize=6;strokeColor=#FFFFFF;strokeWidth=1;dashed=1;" parent="1" source="346" target="349" edge="1">
                    <mxGeometry relative="1" as="geometry"/>
                </mxCell>
                <mxCell id="362" style="edgeStyle=none;html=1;entryX=0.014;entryY=0.475;entryDx=0;entryDy=0;entryPerimeter=0;fontSize=10;fontColor=#FFFFFF;startArrow=none;startFill=0;endArrow=classic;endFill=1;startSize=6;endSize=6;strokeColor=#FFFFFF;strokeWidth=1;" parent="1" source="346" target="357" edge="1">
                    <mxGeometry relative="1" as="geometry"/>
                </mxCell>
                <mxCell id="346" value="" style="shape=message;html=1;whiteSpace=wrap;html=1;outlineConnect=0;fontColor=#FFFFFF;" parent="1" vertex="1">
                    <mxGeometry x="2251" y="1682" width="60" height="40" as="geometry"/>
                </mxCell>
                <mxCell id="349" value="&lt;span style=&quot;font-size: 10px&quot;&gt;&lt;span style=&quot;white-space: pre&quot;&gt; &lt;/span&gt;user_each&lt;/span&gt;&lt;span style=&quot;font-size: 10px&quot;&gt;&lt;br&gt;&lt;span&gt; &lt;/span&gt;&lt;span&gt; &lt;span&gt; &lt;/span&gt;&lt;/span&gt;&lt;span&gt; &lt;span&gt; &lt;/span&gt;&lt;/span&gt;&lt;span style=&quot;white-space: pre&quot;&gt; &lt;/span&gt;&lt;span style=&quot;white-space: pre&quot;&gt; &lt;/span&gt;&lt;b&gt;user_pending_iba_fee&lt;/b&gt;[X]&lt;br&gt;&lt;span&gt; &lt;/span&gt;&lt;br&gt;&lt;span&gt; &lt;/span&gt;&lt;span style=&quot;white-space: pre&quot;&gt; &lt;/span&gt;&lt;b&gt;bitso_pending_iba_fee&lt;/b&gt;&lt;/span&gt;&lt;span style=&quot;font-size: 10px&quot;&gt;&lt;br&gt;&lt;/span&gt;" style="rounded=0;whiteSpace=wrap;html=1;dashed=1;fontColor=#FFFFFF;align=left;" parent="1" vertex="1">
                    <mxGeometry x="2190.5" y="1820" width="181" height="83" as="geometry"/>
                </mxCell>
                <mxCell id="357" value="" style="html=1;points=[];perimeter=orthogonalPerimeter;shadow=0;dashed=1;fontSize=10;gradientColor=none;" parent="1" vertex="1">
                    <mxGeometry x="2462" y="1560.5" width="174.5" height="298" as="geometry"/>
                </mxCell>
                <mxCell id="358" value="&lt;font&gt;CCY User #X Wallet&amp;nbsp;&lt;/font&gt;" style="aspect=fixed;perimeter=ellipsePerimeter;html=1;align=center;shadow=0;dashed=0;fontColor=#FFFFFF;labelBackgroundColor=#ffffff;fontSize=12;spacingTop=3;image;image=img/lib/ibm/blockchain/wallet.svg;" parent="1" vertex="1">
                    <mxGeometry x="2519.25" y="1751.5" width="60" height="60" as="geometry"/>
                </mxCell>
                <mxCell id="359" value="&lt;span style=&quot;background-color: rgb(42 , 42 , 42)&quot;&gt;CCY Bitso Wallet&lt;/span&gt;" style="html=1;verticalLabelPosition=bottom;align=center;labelBackgroundColor=#ffffff;verticalAlign=top;strokeWidth=2;strokeColor=#0080F0;shadow=0;dashed=0;shape=mxgraph.ios7.icons.wallet;fontColor=#FFFFFF;" parent="1" vertex="1">
                    <mxGeometry x="2514.25" y="1624.17" width="70" height="56" as="geometry"/>
                </mxCell>
                <mxCell id="360" style="edgeStyle=none;html=1;fontColor=#FFFFFF;endArrow=none;endFill=0;strokeColor=#FFFFFF;startArrow=classic;startFill=1;" parent="1" source="358" target="359" edge="1">
                    <mxGeometry relative="1" as="geometry"/>
                </mxCell>
                <mxCell id="361" value="&amp;lt;DoBitsoThings&amp;gt;" style="edgeLabel;html=1;align=center;verticalAlign=middle;resizable=0;points=[];fontColor=#FFFFFF;" parent="1" vertex="1" connectable="0">
                    <mxGeometry x="2550.25" y="1587.9347826086957" as="geometry"/>
                </mxCell>
            </root>
        </mxGraphModel>
    </diagram>
</mxfile>